<?xml version="1.0" encoding="UTF-8"?>
<svg xmlns="http://www.w3.org/2000/svg" version="1.1" viewBox="0 0 675.39 175.53">
  <g>
      <path style="fill: #fff;" d="M174.02,26.28c0-14.48,11.8-26.28,26.28-26.28h7.51v16.09h-.27c-4.29,0-8.31,1.74-11.13,4.56-1.34,1.48-2.28,3.49-2.28,5.63h13.68v17.16h-13.68v55.25h-20.11v-55.25h-8.18v-17.16h8.18ZM269.89,62.49V26.28h20.11v36.21c0,21.19-14.48,38.35-36.74,38.35s-36.74-17.16-36.74-38.35V26.28h20.11v36.21c0,11.13,5.5,20.11,16.63,20.11s16.63-8.98,16.63-20.11ZM302.75,98.69V2.15h20.11v96.55h-20.11ZM336.27,98.69V2.15h20.11v96.55h-20.11ZM425.31,2.15h20.11v96.55h-18.77v-8.58c-4.83,6.57-12.47,10.73-21.05,10.73-21.99,0-39.83-17.16-39.83-38.35s17.83-38.35,39.69-38.35c7.64,0,14.48,2.82,19.85,7.38V2.15ZM385.88,62.49c0,11.13,8.98,20.11,20.11,20.11s20.11-8.98,20.11-20.11-8.98-20.11-20.11-20.11-20.11,8.98-20.11,20.11ZM494.63,24.14c21.99,0,39.83,17.16,39.83,38.35h0v36.21h-18.77v-8.98c-4.56,6.7-12.34,11.13-21.05,11.13-21.99,0-39.83-17.16-39.83-38.35s17.83-38.35,39.83-38.35ZM495.04,82.6c11.13,0,20.11-8.98,20.11-20.11s-8.98-20.11-20.11-20.11-20.11,8.98-20.11,20.11,8.98,20.11,20.11,20.11ZM566.91,2.15v24.14h20.11v17.16h-20.11v19.04c0,11.13,8.98,20.11,20.11,20.11v18.24h-2.68c-22.26,0-37.55-17.16-37.55-38.35V2.15h20.11ZM635.57,24.14c21.99,0,39.83,17.16,39.83,38.35h0v36.21h-18.77v-8.98c-4.56,6.7-12.34,11.13-21.05,11.13-21.99,0-39.83-17.16-39.83-38.35s17.83-38.35,39.83-38.35ZM635.97,82.6c11.13,0,20.11-8.98,20.11-20.11s-8.98-20.11-20.11-20.11-20.11,8.98-20.11,20.11,8.98,20.11,20.11,20.11Z"/>
      <path style="fill: #eb1034;" d="M547.57,156.13c0,3.7-3,6.62-6.62,6.62s-6.62-2.93-6.62-6.62,2.93-6.62,6.62-6.62,6.62,3,6.62,6.62ZM575.21,118.86c12.63,0,22.87,9.86,22.87,22.02s-10.24,22.02-22.87,22.02c-4.39,0-8.39-1.77-11.32-4.62v17.25h-11.55v-34.65c0-12.16,10.24-22.02,22.87-22.02ZM574.98,152.43c6.39,0,11.55-5.16,11.55-11.55s-5.16-11.55-11.55-11.55-11.55,5.16-11.55,11.55,5.16,11.55,11.55,11.55ZM603.08,140.88c0-12.16,8.78-22.02,21.56-22.02h1.54v10.47c-6.39,0-11.55,5.16-11.55,11.55v20.79h-11.55v-20.79ZM674.76,140.88c0,12.16-10.24,22.02-22.94,22.02s-22.94-9.86-22.94-22.02,10.24-22.02,22.94-22.02,22.94,9.86,22.94,22.02ZM663.21,140.88c0-6.39-5.08-11.55-11.39-11.55s-11.39,5.16-11.39,11.55,5.08,11.55,11.39,11.55,11.39-5.16,11.39-11.55Z"/>
  </g>
  <g>
    <path style="fill: #eb1034;" d="M86.27,94.04c-2-2.01-4.4-3.57-7.05-4.58,3.03-5.54,3.62-12.02,3.89-15.41.54-5.94-1.47-11.83-5.54-16.19-4.07-4.36-9.8-6.78-15.76-6.66-6.31-.02-12.35,2.66-16.56,7.37-3.76,4.13-5.58,9.67-4.99,15.22.19,5.44,1.53,10.78,3.97,15.64-6.99,2.72-12.02,8.93-13.22,16.33-.21,1.09.07,2.22.77,3.07.71.85,1.75,1.36,2.86,1.36h5.96c1.65.02,3.1-1.06,3.56-2.64.56-2.69,2.47-4.9,5.07-5.82,4.03-1.34,8.21-2.14,12.44-2.38,4.12.21,8.19.97,12.11,2.23,3.57-3.39,7.83-5.96,12.48-7.55h0ZM61.81,86.1c-3.33,0-7.49,0-8.36-13.22v-.32c-.26-1.88.34-3.79,1.61-5.2,1.73-1.88,4.19-2.96,6.74-2.94,2.33-.01,4.57.95,6.18,2.64,1.42,1.51,2.14,3.55,1.97,5.62-1.02,13.34-4.81,13.34-8.15,13.34v.07Z"/>
    <path style="fill: #eb1034;" d="M99.55,149l4.29-10.81c1.54-3.89,4.63-6.98,8.52-8.52l10.88-4.29c.46-.18.76-.62.76-1.12s-.3-.94-.76-1.12l-10.88-4.29c-3.89-1.54-6.98-4.63-8.52-8.52l-4.29-10.81c-.18-.46-.62-.76-1.12-.76s-.94.3-1.12.76l-4.29,10.81c-1.54,3.9-4.62,6.98-8.52,8.52l-10.81,4.29c-.46.18-.76.62-.76,1.12s.3.94.76,1.12l10.81,4.29c3.9,1.54,6.98,4.62,8.52,8.52l4.29,10.81c.18.46.62.77,1.12.77s.94-.31,1.12-.77Z"/>
    <path style="fill: #eb1034;" d="M0,124.31c0,14.06,11.4,25.46,25.46,25.46h8.86c3.68.09,6.84-2.6,7.34-6.25.38-3.82-2.4-7.22-6.21-7.6-.24-.02-.49-.04-.73-.03h-9.26c-6.39,0-11.57-5.18-11.57-11.57h0v-8.86c.09-3.68-2.6-6.84-6.25-7.34h-.69c-1.71.01-3.36.65-4.63,1.81-1.46,1.31-2.3,3.17-2.31,5.14v9.26Z"/>
    <path style="fill: #eb1034;" d="M34.71,25.77h-9.26C11.4,25.77,0,37.16,0,51.22v9.26c-.02,3.83,3.07,6.96,6.91,6.98.24,0,.49-.01.73-.03,3.65-.49,6.34-3.66,6.25-7.34v-8.86c0-6.39,5.18-11.57,11.57-11.57h8.86c3.68.09,6.84-2.6,7.34-6.25.38-3.82-2.4-7.22-6.21-7.6-.24-.02-.49-.04-.73-.03Z"/>
    <g>
      <path style="fill: #eb1034;" d="M124,51.22c0-14.06-11.4-25.46-25.46-25.46h-8.86c-3.68-.09-6.84,2.6-7.34,6.25-.38,3.82,2.4,7.22,6.21,7.6.24.02.49.04.73.03h9.26c6.39,0,11.57,5.18,11.57,11.57v8.86c-.09,3.68,2.6,6.84,6.25,7.34,3.82.38,7.22-2.4,7.6-6.21.02-.24.04-.49.03-.73v-9.26Z"/>
    </g>
  </g>
</svg>