<svg version="1.1" xmlns="http://www.w3.org/2000/svg" xmlns:xlink="http://www.w3.org/1999/xlink" x="0px" y="0px" viewBox="0 0 123.2 42.4" style="enable-background:new 0 0 123.2 42.4;" xml:space="preserve">
<g>
	<g transform="matrix(0.8552630720376395,0,0,0.8552630720376395,86.9736840688621,-7.031577583957715)">
		<path style="fill:#FFFFFF;" d="M-99.4,15.7c0-4.1,3.3-7.4,7.4-7.4h2.1v4.5h-0.1c-1.2,0-2.4,0.5-3.1,1.3c-0.4,0.4-0.6,1-0.6,1.6h3.9v4.9
			h-3.9v15.6h-5.7V20.5h-2.3v-4.9L-99.4,15.7z M-72.3,25.9V15.7h5.7v10.2c0,6-4.1,10.8-10.4,10.8s-10.4-4.9-10.4-10.8V15.7h5.7
			v10.2c0,3.1,1.6,5.7,4.7,5.7C-73.8,31.6-72.3,29-72.3,25.9z M-63,36.1V8.8h5.7v27.3H-63z M-53.5,36.1V8.8h5.7v27.3H-53.5z
			 M-28.3,8.8h5.7v27.3H-28v-2.4c-1.4,1.9-3.5,3-6,3c-6.2,0-11.3-4.9-11.3-10.8S-40.1,15-34,15c2.2,0,4.1,0.8,5.6,2.1
			C-28.3,17.1-28.3,8.8-28.3,8.8z M-39.5,25.9c0,3.1,2.5,5.7,5.7,5.7s5.7-2.5,5.7-5.7s-2.5-5.7-5.7-5.7S-39.5,22.7-39.5,25.9z
			 M-8.7,15c6.2,0,11.3,4.9,11.3,10.8l0,0v10.2h-5.3v-2.5c-1.3,1.9-3.5,3.1-6,3.1C-15,36.7-20,31.9-20,25.9S-15,15-8.7,15z
			 M-8.6,31.6c3.1,0,5.7-2.5,5.7-5.7s-2.5-5.7-5.7-5.7s-5.7,2.5-5.7,5.7S-11.8,31.6-8.6,31.6z M11.7,8.8v6.8h5.7v4.9h-5.7v5.4
			c0,3.1,2.5,5.7,5.7,5.7v5.2h-0.8C10.3,36.7,6,31.9,6,25.9V8.8L11.7,8.8z M31.1,15c6.2,0,11.3,4.9,11.3,10.8l0,0v10.2H37v-2.5
			c-1.3,1.9-3.5,3.1-6,3.1c-6.2,0-11.3-4.9-11.3-10.8S24.9,15,31.1,15z M31.2,31.6c3.1,0,5.7-2.5,5.7-5.7s-2.5-5.7-5.7-5.7
			c-3.1,0-5.7,2.5-5.7,5.7S28.1,31.6,31.2,31.6z"/>
	</g>
	<g transform="matrix(1,0,0,1,132.5999994277954,29.1200008392334)">
		<path style="fill:#EB1034;" d="M-40.3,8.6c0,0.9-0.7,1.6-1.6,1.6c-0.9,0-1.6-0.7-1.6-1.6c0-0.9,0.7-1.6,1.6-1.6C-41,7-40.3,7.8-40.3,8.6z
			 M-33.6-0.4c3.1,0,5.5,2.4,5.5,5.3s-2.5,5.3-5.5,5.3c-1.1,0-2-0.4-2.7-1.1v4.2h-2.8V4.9C-39.2,2-36.7-0.4-33.6-0.4z M-33.7,7.7
			c1.5,0,2.8-1.2,2.8-2.8s-1.2-2.8-2.8-2.8s-2.8,1.2-2.8,2.8S-35.2,7.7-33.7,7.7z M-26.9,4.9c0-2.9,2.1-5.3,5.2-5.3h0.4v2.5
			c-1.5,0-2.8,1.2-2.8,2.8v5h-2.8V4.9z M-9.6,4.9c0,2.9-2.5,5.3-5.5,5.3s-5.5-2.4-5.5-5.3s2.5-5.3,5.5-5.3S-9.6,2-9.6,4.9z
			 M-12.3,4.9c0-1.5-1.2-2.8-2.8-2.8s-2.8,1.2-2.8,2.8s1.2,2.8,2.8,2.8S-12.3,6.5-12.3,4.9z"/>
	</g>
</g>
</svg>
