<svg version="1.1" xmlns="http://www.w3.org/2000/svg" xmlns:xlink="http://www.w3.org/1999/xlink" x="0px" y="0px" viewBox="0 0 250.1 200" style="enable-background:new 0 0 250.1 200;" xml:space="preserve">
<g transform="matrix(2.25,0,0,2.25,-2.25,-9.0087890625)">
	<g transform="translate(0,-1020.3622)">
		<path style="fill:#FFFFFF;" d="M45.2,1024.4c-10,0-18,7.9-18.6,17.9c-2,0.5-3.9,1.3-5.6,2.4c-5.1,3-8.7,9.4-8.8,16.2
			c0,10.5,8.5,19.1,18.9,19.1h12.6v11.1c0,2.1-1.6,3.7-3.7,3.7h-2.1c-0.8-3.2-3.7-5.6-7.1-5.6c-4.1,0-7.4,3.3-7.4,7.4
			c0,4.1,3.3,7.4,7.4,7.4c3.4,0,6.3-2.4,7.1-5.6h2.1c4.1,0,7.4-3.3,7.4-7.4v-33.3h-3.7v18.5H31c-8.4,0-15.2-6.9-15.2-15.4
			c0-5.6,2.9-10.5,7.4-13.2c0.2-0.2,0.5-0.3,0.8-0.4c0.5-0.3,1-0.5,1.5-0.7c0.3-0.1,0.5-0.2,0.8-0.3c0.6-0.2,1.3-0.4,1.9-0.5
			c0.9-0.2,1.9-0.3,2.9-0.3c4.4,0,8.3,1.9,11.1,4.9c1.7,1.9,4.5-0.7,2.7-2.5c-3.4-3.8-8.4-6.1-13.8-6.1c-0.3,0-0.5,0-0.8,0.1
			c0.9-7.7,7.2-13.6,15-13.6c7.3,0,13.5,5.2,14.9,12.5c0.2,1.3,1.7,1.9,2.8,1.2c2.4-1.5,5.1-2.2,7.9-2.2c8.4,0,15.2,6.9,15.2,15.4
			c0,1,0.8,1.9,1.9,1.9c5.3,0,9.5,4.3,9.5,9.7c0,5.4-4.3,9.7-9.5,9.7H69.5v-18.5h-3.7v33.3c0,4.1,3.3,7.4,7.4,7.4h2.1
			c0.8,3.2,3.7,5.6,7.1,5.6c4.1,0,7.4-3.3,7.4-7.4c0-4.1-3.3-7.4-7.4-7.4c-3.4,0-6.3,2.4-7.1,5.6h-2.1c-2.1,0-3.7-1.6-3.7-3.7v-11.1
			h18.3c7.3,0,13.2-6,13.2-13.4c0-6.8-5.1-12.2-11.7-13.1c-0.8-9.8-8.7-17.6-18.6-17.6c-2.7,0-5.2,1.1-7.7,2.2
			C60.7,1030.1,53.6,1024.4,45.2,1024.4z M51,1050.3v33.3h3.7v-33.3H51z M58.4,1050.3v33.3h3.7v-33.3H58.4z M51,1087.3v3.7h3.7v-3.7
			H51z M58.4,1087.3v3.7h3.7v-3.7H58.4z M30.6,1092.9c2.1,0,3.7,1.6,3.7,3.7s-1.6,3.7-3.7,3.7s-3.7-1.6-3.7-3.7
			S28.6,1092.9,30.6,1092.9z M82.5,1092.9c2.1,0,3.7,1.6,3.7,3.7s-1.6,3.7-3.7,3.7c-2.1,0-3.7-1.6-3.7-3.7S80.4,1092.9,82.5,1092.9z
			 M1,1094.7v3.7h3.7v-3.7H1z M8.4,1094.7v3.7h3.7v-3.7H8.4z M15.8,1094.7v3.7h3.7v-3.7H15.8z M51,1094.7v3.7h3.7v-3.7H51z
			 M58.4,1094.7v3.7h3.7v-3.7H58.4z M93.6,1094.7v3.7h3.7v-3.7H93.6z M101,1094.7v3.7h3.7v-3.7H101z M108.4,1094.7v3.7h3.7v-3.7
			H108.4z M51,1102.1v3.7h3.7v-3.7H51z M58.4,1102.1v3.7h3.7v-3.7H58.4z M51,1109.6v3.7h3.7v-3.7H51z M58.4,1109.6v3.7h3.7v-3.7
			H58.4z"/>
	</g>
</g>
</svg>
