<?xml version="1.0" encoding="utf-8" ?>
<svg baseProfile="full" height="600" version="1.1" width="884" xmlns="http://www.w3.org/2000/svg" xmlns:ev="http://www.w3.org/2001/xml-events" xmlns:xlink="http://www.w3.org/1999/xlink"><defs /><path d="M 393.00 172.00 L 392.00 172.00 L 391.00 172.00 L 390.00 172.00 L 389.00 172.00 L 388.00 172.00 L 387.00 171.00 L 387.00 171.00 L 386.00 171.00 L 385.00 171.00 L 384.00 171.00 L 383.00 170.00 L 383.00 170.00 L 382.00 170.00 L 381.00 169.00 L 381.00 169.00 L 380.00 169.00 L 379.00 169.00 L 378.00 169.00 L 377.00 169.00 L 376.00 169.00 L 375.00 168.00 L 375.00 168.00 L 374.00 168.00 L 373.00 168.00 L 372.00 167.00 L 372.00 167.00 L 371.00 167.00 L 370.00 167.00 L 369.00 166.00 L 369.00 166.00 L 368.00 166.00 L 367.00 166.00 L 366.00 166.00 L 365.00 165.00 L 365.00 165.00 L 364.00 165.00 L 363.00 165.00 L 362.00 164.00 L 362.00 164.00 L 361.00 164.00 L 360.00 164.00 L 359.00 164.00 L 359.00 164.00 L 358.00 165.00 L 357.00 165.00 L 356.00 165.00 L 356.00 165.00 L 355.00 166.00 L 354.00 166.00 L 353.00 166.00 L 353.00 166.00 L 352.00 167.00 L 351.00 167.00 L 350.00 167.00 L 349.00 167.00 L 349.00 167.00 L 348.00 168.00 L 347.00 168.00 L 346.00 168.00 L 346.00 168.00 L 345.00 169.00 L 344.00 169.00 L 343.00 169.00 L 342.00 169.00 L 341.00 169.00 L 341.00 169.00 L 340.00 170.00 L 339.00 170.00 L 338.00 170.00 L 338.00 170.00 L 337.00 171.00 L 336.00 171.00 L 335.00 171.00 L 334.00 171.00 L 334.00 171.00 L 333.00 172.00 L 332.00 172.00 L 331.00 172.00 L 330.00 172.00 L 329.00 172.00 L 328.00 171.00 L 328.00 171.00 L 327.00 171.00 L 326.00 171.00 L 325.00 170.00 L 325.00 170.00 L 324.00 169.00 L 324.00 169.00 L 323.00 168.00 L 323.00 168.00 L 322.00 167.00 L 322.00 167.00 L 321.00 166.00 L 321.00 165.00 L 321.00 164.00 L 321.00 164.00 L 320.00 163.00 L 320.00 162.00 L 320.00 161.00 L 320.00 160.00 L 320.00 159.00 L 321.00 158.00 L 321.00 158.00 L 321.00 157.00 L 321.00 156.00 L 322.00 155.00 L 322.00 155.00 L 322.00 154.00 L 322.00 153.00 L 322.00 152.00 L 323.00 151.00 L 323.00 151.00 L 323.00 150.00 L 323.00 149.00 L 323.00 148.00 L 323.00 147.00 L 324.00 146.00 L 324.00 146.00 L 324.00 145.00 L 324.00 144.00 L 325.00 143.00 L 325.00 143.00 L 325.00 142.00 L 325.00 141.00 L 325.00 140.00 L 326.00 139.00 L 326.00 139.00 L 326.00 138.00 L 326.00 137.00 L 327.00 136.00 L 327.00 136.00 L 327.00 135.00 L 327.00 134.00 L 328.00 133.00 L 328.00 133.00 L 328.00 132.00 L 328.00 131.00 L 328.00 130.00 L 328.00 130.00 L 327.00 129.00 L 327.00 128.00 L 327.00 127.00 L 327.00 127.00 L 326.00 126.00 L 326.00 125.00 L 326.00 124.00 L 326.00 124.00 L 325.00 123.00 L 325.00 122.00 L 325.00 121.00 L 325.00 120.00 L 325.00 120.00 L 324.00 119.00 L 324.00 118.00 L 324.00 117.00 L 324.00 117.00 L 323.00 116.00 L 323.00 115.00 L 323.00 114.00 L 323.00 113.00 L 323.00 112.00 L 323.00 111.00 L 323.00 111.00 L 322.00 110.00 L 322.00 109.00 L 322.00 108.00 L 322.00 108.00 L 321.00 107.00 L 321.00 106.00 L 321.00 105.00 L 321.00 105.00 L 320.00 104.00 L 320.00 103.00 L 320.00 102.00 L 320.00 101.00 L 320.00 100.00 L 321.00 99.00 L 321.00 99.00 L 321.00 98.00 L 322.00 97.00 L 322.00 97.00 L 322.00 96.00 L 323.00 95.00 L 323.00 95.00 L 324.00 94.00 L 324.00 94.00 L 324.00 93.00 L 325.00 92.00 L 326.00 92.00 L 326.00 92.00 L 327.00 91.00 L 328.00 91.00 L 329.00 91.00 L 330.00 91.00 L 331.00 91.00 L 332.00 91.00 L 333.00 91.00 L 334.00 91.00 L 335.00 91.00 L 336.00 92.00 L 336.00 92.00 L 337.00 92.00 L 338.00 92.00 L 339.00 93.00 L 339.00 93.00 L 340.00 93.00 L 341.00 93.00 L 342.00 93.00 L 343.00 94.00 L 343.00 94.00 L 344.00 94.00 L 345.00 94.00 L 346.00 95.00 L 346.00 95.00 L 347.00 95.00 L 348.00 95.00 L 349.00 96.00 L 349.00 96.00 L 350.00 96.00 L 351.00 96.00 L 352.00 97.00 L 352.00 97.00 L 353.00 97.00 L 354.00 97.00 L 355.00 97.00 L 356.00 98.00 L 356.00 98.00 L 357.00 98.00 L 358.00 98.00 L 359.00 98.00 L 360.00 98.00 L 361.00 99.00 L 361.00 99.00 L 361.00 99.00 L 362.00 98.00 L 363.00 98.00 L 364.00 98.00 L 365.00 98.00 L 366.00 98.00 L 366.00 98.00 L 367.00 97.00 L 368.00 97.00 L 369.00 97.00 L 370.00 97.00 L 370.00 97.00 L 371.00 96.00 L 372.00 96.00 L 372.00 96.00 L 373.00 95.00 L 374.00 95.00 L 375.00 95.00 L 375.00 95.00 L 376.00 94.00 L 377.00 94.00 L 378.00 94.00 L 379.00 94.00 L 379.00 94.00 L 380.00 93.00 L 381.00 93.00 L 382.00 93.00 L 382.00 93.00 L 383.00 92.00 L 384.00 92.00 L 385.00 92.00 L 385.00 92.00 L 386.00 91.00 L 387.00 91.00 L 388.00 91.00 L 389.00 91.00 L 390.00 91.00 L 391.00 91.00 L 392.00 91.00 L 393.00 91.00 L 394.00 91.00 L 395.00 92.00 L 395.00 92.00 L 396.00 92.00 L 397.00 93.00 L 397.00 93.00 L 398.00 94.00 L 398.00 94.00 L 399.00 95.00 L 399.00 96.00 L 399.00 96.00 L 400.00 97.00 L 400.00 98.00 L 400.00 98.00 L 401.00 99.00 L 401.00 100.00 L 401.00 101.00 L 401.00 102.00 L 401.00 103.00 L 401.00 104.00 L 401.00 105.00 L 401.00 106.00 L 400.00 107.00 L 400.00 107.00 L 400.00 108.00 L 400.00 109.00 L 399.00 110.00 L 399.00 110.00 L 399.00 111.00 L 399.00 112.00 L 398.00 113.00 L 398.00 113.00 L 398.00 114.00 L 398.00 115.00 L 398.00 116.00 L 397.00 117.00 L 397.00 117.00 L 397.00 118.00 L 397.00 119.00 L 396.00 120.00 L 396.00 120.00 L 396.00 121.00 L 396.00 122.00 L 395.00 123.00 L 395.00 123.00 L 395.00 124.00 L 395.00 125.00 L 394.00 126.00 L 394.00 126.00 L 394.00 127.00 L 394.00 128.00 L 394.00 129.00 L 394.00 130.00 L 394.00 131.00 L 394.00 132.00 L 394.00 133.00 L 394.00 134.00 L 394.00 135.00 L 394.00 136.00 L 394.00 136.00 L 395.00 137.00 L 395.00 138.00 L 395.00 139.00 L 395.00 140.00 L 395.00 140.00 L 396.00 141.00 L 396.00 142.00 L 396.00 143.00 L 396.00 143.00 L 397.00 144.00 L 397.00 145.00 L 397.00 146.00 L 397.00 146.00 L 398.00 147.00 L 398.00 148.00 L 398.00 149.00 L 398.00 149.00 L 399.00 150.00 L 399.00 151.00 L 399.00 152.00 L 399.00 152.00 L 400.00 153.00 L 400.00 154.00 L 400.00 155.00 L 400.00 156.00 L 400.00 156.00 L 401.00 157.00 L 401.00 158.00 L 401.00 159.00 L 401.00 160.00 L 401.00 161.00 L 401.00 162.00 L 401.00 163.00 L 401.00 164.00 L 401.00 165.00 L 400.00 166.00 L 400.00 166.00 L 400.00 167.00 L 399.00 168.00 L 398.00 168.00 L 398.00 168.00 L 397.00 169.00 L 397.00 169.00 L 396.00 170.00 L 396.00 170.00 L 395.00 171.00 L 394.00 171.00 L 394.00 171.00 L 393.00 172.00 Z" fill="black" /><path d="M 374.00 145.00 L 374.00 145.00 L 373.00 144.00 L 373.00 143.00 L 373.00 142.00 L 373.00 142.00 L 372.00 141.00 L 372.00 140.00 L 372.00 139.00 L 372.00 139.00 L 371.00 138.00 L 371.00 137.00 L 371.00 136.00 L 371.00 135.00 L 371.00 135.00 L 370.00 134.00 L 370.00 133.00 L 370.00 132.00 L 370.00 131.00 L 370.00 130.00 L 370.00 129.00 L 371.00 128.00 L 371.00 128.00 L 371.00 127.00 L 371.00 126.00 L 371.00 125.00 L 372.00 124.00 L 372.00 124.00 L 372.00 123.00 L 372.00 122.00 L 373.00 121.00 L 373.00 121.00 L 373.00 120.00 L 373.00 119.00 L 373.00 119.00 L 372.00 119.00 L 371.00 119.00 L 371.00 119.00 L 370.00 120.00 L 369.00 120.00 L 368.00 120.00 L 368.00 120.00 L 367.00 121.00 L 366.00 121.00 L 365.00 121.00 L 364.00 121.00 L 363.00 121.00 L 363.00 121.00 L 362.00 122.00 L 361.00 122.00 L 360.00 122.00 L 359.00 122.00 L 358.00 121.00 L 358.00 121.00 L 357.00 121.00 L 356.00 121.00 L 355.00 121.00 L 354.00 120.00 L 354.00 120.00 L 353.00 120.00 L 352.00 120.00 L 351.00 120.00 L 350.00 119.00 L 350.00 119.00 L 349.00 119.00 L 348.00 119.00 L 347.00 118.00 L 347.00 118.00 L 347.00 118.00 L 347.00 118.00 L 348.00 119.00 L 348.00 120.00 L 348.00 121.00 L 348.00 122.00 L 348.00 122.00 L 349.00 123.00 L 349.00 124.00 L 349.00 125.00 L 349.00 125.00 L 350.00 126.00 L 350.00 127.00 L 350.00 128.00 L 350.00 128.00 L 351.00 129.00 L 351.00 130.00 L 351.00 131.00 L 351.00 132.00 L 351.00 133.00 L 351.00 134.00 L 350.00 135.00 L 350.00 135.00 L 350.00 136.00 L 350.00 137.00 L 349.00 138.00 L 349.00 138.00 L 349.00 139.00 L 349.00 140.00 L 348.00 141.00 L 348.00 141.00 L 348.00 142.00 L 348.00 143.00 L 347.00 144.00 L 347.00 144.00 L 347.00 145.00 L 347.00 145.00 L 348.00 145.00 L 348.00 145.00 L 349.00 144.00 L 350.00 144.00 L 351.00 144.00 L 351.00 144.00 L 352.00 143.00 L 353.00 143.00 L 354.00 143.00 L 354.00 143.00 L 355.00 142.00 L 356.00 142.00 L 357.00 142.00 L 358.00 142.00 L 358.00 142.00 L 359.00 141.00 L 360.00 141.00 L 361.00 141.00 L 362.00 141.00 L 363.00 141.00 L 364.00 142.00 L 364.00 142.00 L 365.00 142.00 L 366.00 142.00 L 367.00 143.00 L 367.00 143.00 L 368.00 143.00 L 369.00 143.00 L 370.00 144.00 L 370.00 144.00 L 371.00 144.00 L 372.00 144.00 L 373.00 145.00 L 373.00 145.00 L 374.00 145.00 L 374.00 145.00 Z" fill="black" /><path d="M 299.00 494.00 L 298.00 494.00 L 297.00 494.00 L 296.00 494.00 L 295.00 494.00 L 294.00 494.00 L 293.00 494.00 L 292.00 494.00 L 291.00 494.00 L 290.00 494.00 L 289.00 494.00 L 288.00 494.00 L 287.00 494.00 L 286.00 494.00 L 285.00 494.00 L 284.00 494.00 L 283.00 493.00 L 283.00 493.00 L 282.00 493.00 L 281.00 493.00 L 280.00 493.00 L 279.00 493.00 L 278.00 492.00 L 278.00 492.00 L 277.00 492.00 L 276.00 492.00 L 275.00 492.00 L 274.00 491.00 L 274.00 491.00 L 273.00 491.00 L 272.00 490.00 L 272.00 490.00 L 271.00 490.00 L 270.00 490.00 L 269.00 489.00 L 269.00 489.00 L 268.00 489.00 L 267.00 488.00 L 267.00 488.00 L 266.00 488.00 L 265.00 487.00 L 265.00 487.00 L 264.00 487.00 L 263.00 486.00 L 263.00 486.00 L 262.00 486.00 L 261.00 485.00 L 261.00 485.00 L 260.00 485.00 L 259.00 484.00 L 259.00 484.00 L 258.00 483.00 L 258.00 483.00 L 257.00 483.00 L 256.00 482.00 L 256.00 482.00 L 255.00 481.00 L 255.00 481.00 L 254.00 480.00 L 254.00 480.00 L 253.00 479.00 L 253.00 479.00 L 252.00 478.00 L 252.00 478.00 L 251.00 477.00 L 251.00 477.00 L 250.00 476.00 L 250.00 476.00 L 249.00 475.00 L 249.00 475.00 L 248.00 474.00 L 248.00 474.00 L 247.00 473.00 L 247.00 473.00 L 246.00 472.00 L 246.00 471.00 L 246.00 471.00 L 245.00 470.00 L 245.00 470.00 L 244.00 469.00 L 244.00 469.00 L 243.00 468.00 L 243.00 467.00 L 243.00 467.00 L 242.00 466.00 L 242.00 465.00 L 242.00 465.00 L 241.00 464.00 L 241.00 463.00 L 241.00 463.00 L 240.00 462.00 L 240.00 461.00 L 240.00 461.00 L 239.00 460.00 L 239.00 459.00 L 239.00 459.00 L 238.00 458.00 L 238.00 457.00 L 238.00 456.00 L 238.00 456.00 L 237.00 455.00 L 237.00 454.00 L 237.00 453.00 L 237.00 453.00 L 236.00 452.00 L 236.00 451.00 L 236.00 450.00 L 236.00 449.00 L 236.00 449.00 L 235.00 448.00 L 235.00 447.00 L 235.00 446.00 L 235.00 445.00 L 235.00 444.00 L 235.00 444.00 L 234.00 443.00 L 234.00 442.00 L 234.00 441.00 L 234.00 440.00 L 234.00 439.00 L 234.00 438.00 L 234.00 437.00 L 234.00 436.00 L 234.00 435.00 L 234.00 434.00 L 234.00 433.00 L 234.00 432.00 L 234.00 431.00 L 234.00 430.00 L 234.00 429.00 L 235.00 428.00 L 235.00 428.00 L 235.00 427.00 L 235.00 426.00 L 235.00 425.00 L 235.00 424.00 L 236.00 423.00 L 236.00 423.00 L 236.00 422.00 L 236.00 421.00 L 236.00 420.00 L 237.00 419.00 L 237.00 419.00 L 237.00 418.00 L 238.00 417.00 L 238.00 417.00 L 238.00 416.00 L 238.00 415.00 L 239.00 414.00 L 239.00 414.00 L 239.00 413.00 L 240.00 412.00 L 240.00 412.00 L 240.00 411.00 L 240.00 410.00 L 241.00 409.00 L 241.00 409.00 L 241.00 408.00 L 242.00 407.00 L 242.00 407.00 L 242.00 406.00 L 243.00 405.00 L 243.00 405.00 L 244.00 404.00 L 244.00 404.00 L 244.00 403.00 L 245.00 402.00 L 245.00 402.00 L 246.00 401.00 L 246.00 401.00 L 247.00 400.00 L 247.00 400.00 L 248.00 399.00 L 248.00 399.00 L 248.00 398.00 L 249.00 397.00 L 249.00 397.00 L 250.00 396.00 L 250.00 396.00 L 251.00 395.00 L 251.00 395.00 L 252.00 394.00 L 252.00 394.00 L 253.00 393.00 L 253.00 393.00 L 254.00 392.00 L 254.00 392.00 L 255.00 391.00 L 255.00 391.00 L 256.00 390.00 L 256.00 390.00 L 257.00 389.00 L 257.00 389.00 L 258.00 388.00 L 258.00 388.00 L 259.00 387.00 L 259.00 387.00 L 260.00 386.00 L 260.00 386.00 L 261.00 385.00 L 261.00 385.00 L 262.00 384.00 L 262.00 384.00 L 263.00 383.00 L 263.00 383.00 L 264.00 382.00 L 264.00 382.00 L 265.00 381.00 L 265.00 381.00 L 266.00 380.00 L 266.00 380.00 L 267.00 379.00 L 267.00 379.00 L 268.00 378.00 L 268.00 378.00 L 269.00 377.00 L 269.00 377.00 L 270.00 376.00 L 270.00 376.00 L 271.00 375.00 L 271.00 375.00 L 272.00 374.00 L 272.00 374.00 L 273.00 373.00 L 273.00 373.00 L 274.00 372.00 L 274.00 372.00 L 275.00 371.00 L 275.00 371.00 L 276.00 370.00 L 276.00 370.00 L 277.00 369.00 L 277.00 369.00 L 278.00 368.00 L 278.00 368.00 L 279.00 367.00 L 279.00 367.00 L 280.00 366.00 L 280.00 366.00 L 281.00 365.00 L 281.00 365.00 L 282.00 364.00 L 282.00 364.00 L 283.00 363.00 L 283.00 363.00 L 284.00 362.00 L 284.00 362.00 L 285.00 361.00 L 285.00 361.00 L 286.00 360.00 L 286.00 360.00 L 287.00 359.00 L 287.00 359.00 L 288.00 358.00 L 288.00 358.00 L 289.00 357.00 L 289.00 357.00 L 290.00 356.00 L 290.00 356.00 L 291.00 355.00 L 291.00 355.00 L 292.00 354.00 L 292.00 354.00 L 293.00 353.00 L 293.00 353.00 L 294.00 352.00 L 294.00 352.00 L 295.00 351.00 L 295.00 351.00 L 296.00 350.00 L 296.00 350.00 L 297.00 349.00 L 297.00 349.00 L 298.00 348.00 L 298.00 348.00 L 299.00 347.00 L 299.00 347.00 L 300.00 346.00 L 300.00 346.00 L 301.00 345.00 L 301.00 345.00 L 302.00 344.00 L 302.00 344.00 L 303.00 343.00 L 303.00 343.00 L 304.00 342.00 L 304.00 342.00 L 305.00 341.00 L 305.00 341.00 L 306.00 340.00 L 306.00 340.00 L 307.00 339.00 L 307.00 339.00 L 308.00 338.00 L 308.00 338.00 L 309.00 337.00 L 309.00 337.00 L 310.00 336.00 L 310.00 336.00 L 311.00 335.00 L 311.00 335.00 L 312.00 334.00 L 312.00 334.00 L 313.00 333.00 L 313.00 333.00 L 314.00 332.00 L 314.00 332.00 L 315.00 331.00 L 315.00 331.00 L 316.00 330.00 L 316.00 330.00 L 317.00 329.00 L 317.00 329.00 L 318.00 328.00 L 318.00 328.00 L 319.00 327.00 L 319.00 327.00 L 320.00 326.00 L 320.00 326.00 L 321.00 325.00 L 321.00 325.00 L 322.00 324.00 L 322.00 324.00 L 323.00 323.00 L 323.00 323.00 L 324.00 322.00 L 324.00 322.00 L 325.00 321.00 L 325.00 321.00 L 326.00 320.00 L 326.00 320.00 L 327.00 319.00 L 327.00 319.00 L 328.00 318.00 L 328.00 318.00 L 329.00 317.00 L 329.00 317.00 L 330.00 316.00 L 330.00 316.00 L 331.00 315.00 L 331.00 315.00 L 332.00 314.00 L 332.00 314.00 L 333.00 313.00 L 333.00 313.00 L 334.00 312.00 L 334.00 312.00 L 335.00 311.00 L 335.00 311.00 L 336.00 310.00 L 336.00 310.00 L 337.00 309.00 L 337.00 309.00 L 338.00 308.00 L 338.00 308.00 L 339.00 307.00 L 339.00 307.00 L 340.00 306.00 L 340.00 306.00 L 341.00 305.00 L 341.00 305.00 L 342.00 304.00 L 342.00 304.00 L 343.00 303.00 L 343.00 303.00 L 344.00 302.00 L 344.00 302.00 L 345.00 301.00 L 345.00 301.00 L 346.00 300.00 L 346.00 300.00 L 347.00 299.00 L 347.00 299.00 L 348.00 298.00 L 348.00 298.00 L 349.00 297.00 L 349.00 297.00 L 350.00 296.00 L 350.00 296.00 L 351.00 295.00 L 351.00 295.00 L 352.00 294.00 L 352.00 294.00 L 353.00 293.00 L 353.00 293.00 L 354.00 292.00 L 354.00 292.00 L 355.00 291.00 L 355.00 291.00 L 356.00 290.00 L 356.00 290.00 L 357.00 289.00 L 357.00 289.00 L 358.00 288.00 L 358.00 288.00 L 359.00 287.00 L 359.00 287.00 L 360.00 286.00 L 360.00 286.00 L 361.00 285.00 L 361.00 285.00 L 362.00 284.00 L 362.00 284.00 L 363.00 283.00 L 363.00 283.00 L 364.00 282.00 L 364.00 282.00 L 365.00 281.00 L 365.00 281.00 L 366.00 280.00 L 366.00 280.00 L 367.00 279.00 L 367.00 279.00 L 368.00 278.00 L 368.00 278.00 L 369.00 277.00 L 369.00 277.00 L 370.00 276.00 L 370.00 276.00 L 371.00 275.00 L 371.00 275.00 L 372.00 274.00 L 372.00 274.00 L 373.00 273.00 L 373.00 273.00 L 374.00 272.00 L 374.00 272.00 L 375.00 271.00 L 375.00 271.00 L 376.00 270.00 L 376.00 270.00 L 377.00 269.00 L 377.00 269.00 L 378.00 268.00 L 378.00 268.00 L 379.00 267.00 L 379.00 267.00 L 380.00 266.00 L 380.00 266.00 L 381.00 265.00 L 381.00 265.00 L 382.00 264.00 L 382.00 264.00 L 383.00 263.00 L 383.00 263.00 L 384.00 262.00 L 384.00 262.00 L 385.00 261.00 L 385.00 261.00 L 386.00 260.00 L 386.00 260.00 L 387.00 259.00 L 387.00 259.00 L 388.00 258.00 L 388.00 258.00 L 389.00 257.00 L 389.00 257.00 L 390.00 256.00 L 390.00 256.00 L 391.00 255.00 L 391.00 255.00 L 392.00 254.00 L 392.00 254.00 L 393.00 253.00 L 393.00 253.00 L 394.00 252.00 L 394.00 252.00 L 395.00 251.00 L 395.00 251.00 L 396.00 250.00 L 396.00 250.00 L 397.00 249.00 L 397.00 249.00 L 398.00 248.00 L 398.00 248.00 L 399.00 247.00 L 399.00 247.00 L 400.00 246.00 L 400.00 246.00 L 401.00 245.00 L 401.00 245.00 L 402.00 244.00 L 402.00 244.00 L 403.00 243.00 L 403.00 243.00 L 404.00 242.00 L 404.00 242.00 L 405.00 241.00 L 405.00 241.00 L 406.00 240.00 L 406.00 240.00 L 407.00 239.00 L 407.00 239.00 L 408.00 238.00 L 408.00 238.00 L 409.00 237.00 L 409.00 237.00 L 410.00 236.00 L 410.00 236.00 L 411.00 235.00 L 411.00 235.00 L 412.00 234.00 L 412.00 234.00 L 413.00 233.00 L 413.00 233.00 L 414.00 232.00 L 414.00 232.00 L 415.00 231.00 L 415.00 231.00 L 416.00 230.00 L 416.00 230.00 L 417.00 229.00 L 417.00 229.00 L 418.00 228.00 L 418.00 228.00 L 419.00 227.00 L 419.00 227.00 L 420.00 226.00 L 420.00 226.00 L 421.00 225.00 L 421.00 225.00 L 422.00 224.00 L 422.00 224.00 L 423.00 223.00 L 423.00 223.00 L 424.00 222.00 L 424.00 222.00 L 425.00 221.00 L 425.00 221.00 L 426.00 220.00 L 426.00 220.00 L 427.00 219.00 L 427.00 219.00 L 428.00 218.00 L 428.00 218.00 L 429.00 217.00 L 429.00 217.00 L 430.00 216.00 L 430.00 216.00 L 431.00 215.00 L 431.00 215.00 L 432.00 214.00 L 432.00 214.00 L 433.00 213.00 L 433.00 213.00 L 434.00 212.00 L 434.00 212.00 L 435.00 211.00 L 435.00 211.00 L 436.00 210.00 L 436.00 210.00 L 437.00 209.00 L 437.00 209.00 L 438.00 208.00 L 438.00 208.00 L 439.00 207.00 L 439.00 207.00 L 440.00 206.00 L 440.00 206.00 L 441.00 205.00 L 441.00 205.00 L 442.00 204.00 L 442.00 204.00 L 443.00 203.00 L 443.00 203.00 L 444.00 202.00 L 444.00 202.00 L 445.00 201.00 L 445.00 201.00 L 446.00 200.00 L 446.00 200.00 L 447.00 199.00 L 447.00 199.00 L 448.00 198.00 L 448.00 198.00 L 449.00 197.00 L 449.00 197.00 L 450.00 196.00 L 450.00 196.00 L 451.00 195.00 L 451.00 195.00 L 452.00 194.00 L 452.00 194.00 L 453.00 193.00 L 453.00 193.00 L 454.00 192.00 L 454.00 192.00 L 455.00 191.00 L 455.00 191.00 L 456.00 190.00 L 456.00 190.00 L 457.00 189.00 L 457.00 189.00 L 458.00 188.00 L 458.00 188.00 L 459.00 187.00 L 459.00 187.00 L 460.00 186.00 L 460.00 186.00 L 461.00 185.00 L 461.00 185.00 L 462.00 184.00 L 462.00 184.00 L 463.00 183.00 L 463.00 183.00 L 464.00 182.00 L 464.00 182.00 L 465.00 181.00 L 465.00 181.00 L 466.00 180.00 L 466.00 180.00 L 467.00 179.00 L 467.00 179.00 L 468.00 178.00 L 468.00 178.00 L 469.00 177.00 L 469.00 177.00 L 470.00 176.00 L 470.00 176.00 L 471.00 175.00 L 471.00 175.00 L 472.00 174.00 L 472.00 174.00 L 473.00 173.00 L 473.00 173.00 L 474.00 172.00 L 474.00 172.00 L 475.00 171.00 L 475.00 171.00 L 476.00 170.00 L 476.00 170.00 L 477.00 169.00 L 477.00 169.00 L 478.00 168.00 L 478.00 168.00 L 479.00 167.00 L 479.00 167.00 L 480.00 166.00 L 480.00 166.00 L 481.00 165.00 L 481.00 165.00 L 482.00 164.00 L 482.00 164.00 L 483.00 163.00 L 483.00 163.00 L 484.00 162.00 L 484.00 162.00 L 485.00 161.00 L 485.00 161.00 L 486.00 160.00 L 486.00 160.00 L 487.00 159.00 L 487.00 159.00 L 488.00 158.00 L 488.00 158.00 L 489.00 157.00 L 489.00 157.00 L 490.00 156.00 L 490.00 156.00 L 491.00 155.00 L 491.00 155.00 L 492.00 154.00 L 492.00 154.00 L 493.00 153.00 L 493.00 153.00 L 494.00 152.00 L 494.00 152.00 L 495.00 151.00 L 495.00 151.00 L 496.00 150.00 L 496.00 150.00 L 497.00 149.00 L 497.00 149.00 L 498.00 148.00 L 498.00 148.00 L 499.00 147.00 L 499.00 147.00 L 500.00 146.00 L 500.00 146.00 L 501.00 145.00 L 501.00 145.00 L 502.00 144.00 L 502.00 144.00 L 503.00 143.00 L 503.00 143.00 L 504.00 142.00 L 504.00 142.00 L 505.00 141.00 L 505.00 141.00 L 506.00 140.00 L 506.00 140.00 L 507.00 139.00 L 507.00 139.00 L 508.00 138.00 L 508.00 138.00 L 509.00 137.00 L 510.00 137.00 L 510.00 137.00 L 511.00 136.00 L 511.00 136.00 L 512.00 135.00 L 512.00 135.00 L 513.00 134.00 L 513.00 134.00 L 514.00 133.00 L 515.00 133.00 L 515.00 133.00 L 516.00 132.00 L 516.00 132.00 L 517.00 131.00 L 518.00 131.00 L 518.00 131.00 L 519.00 130.00 L 520.00 130.00 L 520.00 130.00 L 521.00 129.00 L 522.00 129.00 L 522.00 129.00 L 523.00 128.00 L 524.00 128.00 L 524.00 128.00 L 525.00 127.00 L 526.00 127.00 L 526.00 127.00 L 527.00 126.00 L 528.00 126.00 L 529.00 126.00 L 529.00 126.00 L 530.00 125.00 L 531.00 125.00 L 532.00 125.00 L 532.00 125.00 L 533.00 124.00 L 534.00 124.00 L 535.00 124.00 L 536.00 124.00 L 536.00 124.00 L 537.00 123.00 L 538.00 123.00 L 539.00 123.00 L 540.00 123.00 L 541.00 123.00 L 542.00 123.00 L 543.00 123.00 L 544.00 123.00 L 544.00 123.00 L 545.00 122.00 L 546.00 122.00 L 547.00 122.00 L 548.00 122.00 L 549.00 122.00 L 550.00 122.00 L 551.00 123.00 L 551.00 123.00 L 552.00 123.00 L 553.00 123.00 L 554.00 123.00 L 555.00 123.00 L 556.00 123.00 L 557.00 123.00 L 558.00 123.00 L 559.00 124.00 L 559.00 124.00 L 560.00 124.00 L 561.00 124.00 L 562.00 124.00 L 563.00 125.00 L 563.00 125.00 L 564.00 125.00 L 565.00 125.00 L 566.00 126.00 L 566.00 126.00 L 567.00 126.00 L 568.00 126.00 L 569.00 127.00 L 569.00 127.00 L 570.00 127.00 L 571.00 128.00 L 571.00 128.00 L 572.00 128.00 L 573.00 129.00 L 573.00 129.00 L 574.00 129.00 L 575.00 130.00 L 575.00 130.00 L 576.00 130.00 L 577.00 131.00 L 577.00 131.00 L 578.00 132.00 L 578.00 132.00 L 579.00 132.00 L 580.00 133.00 L 580.00 133.00 L 581.00 133.00 L 582.00 134.00 L 582.00 134.00 L 583.00 135.00 L 583.00 135.00 L 584.00 136.00 L 584.00 136.00 L 585.00 137.00 L 585.00 137.00 L 586.00 137.00 L 587.00 138.00 L 587.00 138.00 L 588.00 139.00 L 588.00 139.00 L 589.00 140.00 L 589.00 140.00 L 590.00 141.00 L 590.00 141.00 L 591.00 142.00 L 591.00 143.00 L 591.00 143.00 L 592.00 144.00 L 592.00 144.00 L 593.00 145.00 L 593.00 145.00 L 594.00 146.00 L 594.00 146.00 L 595.00 147.00 L 595.00 148.00 L 595.00 148.00 L 596.00 149.00 L 596.00 150.00 L 596.00 150.00 L 597.00 151.00 L 597.00 151.00 L 598.00 152.00 L 598.00 153.00 L 598.00 153.00 L 599.00 154.00 L 599.00 155.00 L 599.00 155.00 L 600.00 156.00 L 600.00 157.00 L 600.00 157.00 L 601.00 158.00 L 601.00 159.00 L 601.00 159.00 L 602.00 160.00 L 602.00 161.00 L 602.00 162.00 L 602.00 162.00 L 603.00 163.00 L 603.00 164.00 L 603.00 165.00 L 603.00 165.00 L 604.00 166.00 L 604.00 167.00 L 604.00 168.00 L 604.00 169.00 L 604.00 169.00 L 605.00 170.00 L 605.00 171.00 L 605.00 172.00 L 605.00 173.00 L 605.00 174.00 L 605.00 175.00 L 605.00 176.00 L 605.00 177.00 L 605.00 178.00 L 605.00 178.00 L 606.00 179.00 L 606.00 180.00 L 606.00 181.00 L 606.00 182.00 L 605.00 183.00 L 605.00 183.00 L 605.00 184.00 L 605.00 185.00 L 605.00 186.00 L 605.00 187.00 L 605.00 188.00 L 605.00 189.00 L 605.00 190.00 L 605.00 191.00 L 604.00 192.00 L 604.00 192.00 L 604.00 193.00 L 604.00 194.00 L 604.00 195.00 L 603.00 196.00 L 603.00 196.00 L 603.00 197.00 L 603.00 198.00 L 602.00 199.00 L 602.00 199.00 L 602.00 200.00 L 602.00 201.00 L 601.00 202.00 L 601.00 202.00 L 601.00 203.00 L 600.00 204.00 L 600.00 204.00 L 600.00 205.00 L 599.00 206.00 L 599.00 206.00 L 599.00 207.00 L 598.00 208.00 L 598.00 208.00 L 598.00 209.00 L 597.00 210.00 L 597.00 210.00 L 596.00 211.00 L 596.00 211.00 L 596.00 212.00 L 595.00 213.00 L 595.00 213.00 L 594.00 214.00 L 594.00 214.00 L 594.00 215.00 L 593.00 216.00 L 593.00 216.00 L 592.00 217.00 L 592.00 217.00 L 591.00 218.00 L 591.00 218.00 L 590.00 219.00 L 590.00 219.00 L 590.00 220.00 L 589.00 221.00 L 589.00 221.00 L 588.00 222.00 L 588.00 222.00 L 587.00 223.00 L 587.00 223.00 L 586.00 224.00 L 586.00 224.00 L 585.00 225.00 L 585.00 225.00 L 584.00 226.00 L 584.00 226.00 L 583.00 227.00 L 583.00 227.00 L 582.00 228.00 L 582.00 228.00 L 581.00 229.00 L 581.00 229.00 L 580.00 230.00 L 580.00 230.00 L 579.00 231.00 L 579.00 231.00 L 578.00 232.00 L 578.00 232.00 L 577.00 233.00 L 577.00 233.00 L 576.00 234.00 L 576.00 234.00 L 575.00 235.00 L 575.00 235.00 L 574.00 236.00 L 574.00 236.00 L 573.00 237.00 L 573.00 237.00 L 572.00 238.00 L 572.00 238.00 L 571.00 239.00 L 571.00 239.00 L 570.00 240.00 L 570.00 240.00 L 569.00 241.00 L 569.00 241.00 L 568.00 242.00 L 568.00 242.00 L 567.00 243.00 L 567.00 243.00 L 566.00 244.00 L 566.00 244.00 L 565.00 245.00 L 565.00 245.00 L 564.00 246.00 L 564.00 246.00 L 563.00 247.00 L 563.00 247.00 L 562.00 248.00 L 562.00 248.00 L 561.00 249.00 L 561.00 249.00 L 560.00 250.00 L 560.00 250.00 L 559.00 251.00 L 559.00 251.00 L 558.00 252.00 L 558.00 252.00 L 557.00 253.00 L 557.00 253.00 L 556.00 254.00 L 556.00 254.00 L 555.00 255.00 L 555.00 255.00 L 554.00 256.00 L 554.00 256.00 L 553.00 257.00 L 553.00 257.00 L 552.00 258.00 L 552.00 258.00 L 551.00 259.00 L 551.00 259.00 L 550.00 260.00 L 550.00 260.00 L 549.00 261.00 L 549.00 261.00 L 548.00 262.00 L 548.00 262.00 L 547.00 263.00 L 547.00 263.00 L 546.00 264.00 L 546.00 264.00 L 545.00 265.00 L 545.00 265.00 L 544.00 266.00 L 544.00 266.00 L 543.00 267.00 L 543.00 267.00 L 542.00 268.00 L 542.00 268.00 L 541.00 269.00 L 541.00 269.00 L 540.00 270.00 L 540.00 270.00 L 539.00 271.00 L 539.00 271.00 L 538.00 272.00 L 538.00 272.00 L 537.00 273.00 L 537.00 273.00 L 536.00 274.00 L 536.00 274.00 L 535.00 275.00 L 535.00 275.00 L 534.00 276.00 L 534.00 276.00 L 533.00 277.00 L 533.00 277.00 L 532.00 278.00 L 532.00 278.00 L 531.00 279.00 L 531.00 279.00 L 530.00 280.00 L 530.00 280.00 L 529.00 281.00 L 529.00 281.00 L 528.00 282.00 L 528.00 282.00 L 527.00 283.00 L 527.00 283.00 L 526.00 284.00 L 526.00 284.00 L 525.00 285.00 L 525.00 285.00 L 524.00 286.00 L 524.00 286.00 L 523.00 287.00 L 523.00 287.00 L 522.00 288.00 L 522.00 288.00 L 521.00 289.00 L 521.00 289.00 L 520.00 290.00 L 520.00 290.00 L 519.00 291.00 L 519.00 291.00 L 518.00 292.00 L 518.00 292.00 L 517.00 293.00 L 517.00 293.00 L 516.00 294.00 L 516.00 294.00 L 515.00 295.00 L 515.00 295.00 L 514.00 296.00 L 514.00 296.00 L 513.00 297.00 L 513.00 297.00 L 512.00 298.00 L 512.00 298.00 L 511.00 299.00 L 511.00 299.00 L 510.00 300.00 L 510.00 300.00 L 509.00 301.00 L 509.00 301.00 L 508.00 302.00 L 508.00 302.00 L 507.00 303.00 L 507.00 303.00 L 506.00 304.00 L 506.00 304.00 L 505.00 305.00 L 505.00 305.00 L 504.00 306.00 L 504.00 306.00 L 503.00 307.00 L 503.00 307.00 L 502.00 308.00 L 502.00 308.00 L 501.00 309.00 L 501.00 309.00 L 500.00 310.00 L 500.00 310.00 L 499.00 311.00 L 499.00 311.00 L 498.00 312.00 L 498.00 312.00 L 497.00 313.00 L 497.00 313.00 L 496.00 314.00 L 496.00 314.00 L 495.00 315.00 L 495.00 315.00 L 494.00 316.00 L 494.00 316.00 L 493.00 317.00 L 493.00 317.00 L 492.00 318.00 L 492.00 318.00 L 491.00 319.00 L 491.00 319.00 L 490.00 320.00 L 490.00 320.00 L 489.00 321.00 L 489.00 321.00 L 488.00 322.00 L 488.00 322.00 L 487.00 323.00 L 487.00 323.00 L 486.00 324.00 L 486.00 324.00 L 485.00 325.00 L 485.00 325.00 L 484.00 326.00 L 484.00 326.00 L 483.00 327.00 L 483.00 327.00 L 482.00 328.00 L 482.00 328.00 L 481.00 329.00 L 481.00 329.00 L 480.00 330.00 L 480.00 330.00 L 479.00 331.00 L 479.00 331.00 L 478.00 332.00 L 478.00 332.00 L 477.00 333.00 L 477.00 333.00 L 476.00 334.00 L 476.00 334.00 L 475.00 335.00 L 475.00 335.00 L 474.00 336.00 L 474.00 336.00 L 473.00 337.00 L 473.00 337.00 L 472.00 338.00 L 472.00 338.00 L 471.00 339.00 L 471.00 339.00 L 470.00 340.00 L 470.00 340.00 L 469.00 341.00 L 469.00 341.00 L 468.00 342.00 L 468.00 342.00 L 467.00 343.00 L 467.00 343.00 L 466.00 344.00 L 466.00 344.00 L 465.00 345.00 L 465.00 345.00 L 464.00 346.00 L 464.00 346.00 L 463.00 347.00 L 463.00 347.00 L 462.00 348.00 L 462.00 348.00 L 461.00 349.00 L 461.00 349.00 L 460.00 350.00 L 460.00 350.00 L 459.00 351.00 L 459.00 351.00 L 458.00 352.00 L 458.00 352.00 L 457.00 353.00 L 457.00 353.00 L 456.00 354.00 L 456.00 354.00 L 455.00 355.00 L 455.00 355.00 L 454.00 356.00 L 454.00 356.00 L 453.00 357.00 L 453.00 357.00 L 452.00 358.00 L 452.00 358.00 L 451.00 359.00 L 451.00 359.00 L 450.00 360.00 L 450.00 360.00 L 449.00 361.00 L 449.00 361.00 L 448.00 362.00 L 448.00 362.00 L 447.00 363.00 L 447.00 363.00 L 446.00 364.00 L 446.00 364.00 L 445.00 365.00 L 445.00 365.00 L 444.00 366.00 L 444.00 366.00 L 443.00 367.00 L 443.00 367.00 L 442.00 368.00 L 442.00 368.00 L 441.00 369.00 L 441.00 369.00 L 440.00 370.00 L 440.00 370.00 L 439.00 371.00 L 439.00 371.00 L 438.00 372.00 L 438.00 372.00 L 437.00 373.00 L 437.00 373.00 L 436.00 374.00 L 436.00 374.00 L 435.00 375.00 L 435.00 375.00 L 434.00 376.00 L 434.00 376.00 L 433.00 377.00 L 433.00 377.00 L 432.00 378.00 L 432.00 378.00 L 431.00 379.00 L 431.00 379.00 L 430.00 380.00 L 430.00 380.00 L 429.00 381.00 L 429.00 381.00 L 428.00 382.00 L 428.00 382.00 L 427.00 383.00 L 427.00 383.00 L 426.00 384.00 L 426.00 384.00 L 425.00 385.00 L 425.00 385.00 L 424.00 386.00 L 424.00 386.00 L 423.00 387.00 L 423.00 387.00 L 422.00 388.00 L 422.00 388.00 L 421.00 389.00 L 421.00 389.00 L 420.00 390.00 L 420.00 390.00 L 419.00 391.00 L 419.00 391.00 L 418.00 392.00 L 418.00 392.00 L 417.00 393.00 L 417.00 393.00 L 416.00 394.00 L 416.00 394.00 L 415.00 395.00 L 415.00 395.00 L 414.00 396.00 L 414.00 396.00 L 413.00 397.00 L 413.00 397.00 L 412.00 398.00 L 412.00 398.00 L 411.00 399.00 L 411.00 399.00 L 410.00 400.00 L 410.00 400.00 L 409.00 401.00 L 409.00 401.00 L 408.00 402.00 L 408.00 402.00 L 407.00 403.00 L 407.00 403.00 L 406.00 404.00 L 406.00 404.00 L 405.00 405.00 L 405.00 405.00 L 404.00 406.00 L 404.00 406.00 L 403.00 407.00 L 403.00 407.00 L 402.00 408.00 L 402.00 408.00 L 401.00 409.00 L 401.00 409.00 L 400.00 410.00 L 400.00 410.00 L 399.00 411.00 L 399.00 411.00 L 398.00 412.00 L 398.00 412.00 L 397.00 413.00 L 397.00 413.00 L 396.00 414.00 L 396.00 414.00 L 395.00 415.00 L 395.00 415.00 L 394.00 416.00 L 394.00 416.00 L 393.00 417.00 L 393.00 417.00 L 392.00 418.00 L 392.00 418.00 L 391.00 419.00 L 391.00 419.00 L 390.00 420.00 L 390.00 420.00 L 389.00 421.00 L 389.00 421.00 L 388.00 422.00 L 388.00 422.00 L 387.00 423.00 L 387.00 423.00 L 386.00 424.00 L 386.00 424.00 L 385.00 425.00 L 385.00 425.00 L 384.00 426.00 L 384.00 426.00 L 383.00 427.00 L 383.00 427.00 L 382.00 428.00 L 382.00 428.00 L 381.00 429.00 L 381.00 429.00 L 380.00 430.00 L 380.00 430.00 L 379.00 431.00 L 379.00 431.00 L 378.00 432.00 L 378.00 432.00 L 377.00 433.00 L 377.00 433.00 L 376.00 434.00 L 376.00 434.00 L 375.00 435.00 L 375.00 435.00 L 374.00 436.00 L 374.00 436.00 L 373.00 437.00 L 373.00 437.00 L 372.00 438.00 L 372.00 438.00 L 371.00 439.00 L 371.00 439.00 L 370.00 440.00 L 370.00 440.00 L 369.00 441.00 L 369.00 441.00 L 368.00 442.00 L 368.00 442.00 L 367.00 443.00 L 367.00 443.00 L 366.00 444.00 L 366.00 444.00 L 365.00 445.00 L 365.00 445.00 L 364.00 446.00 L 364.00 446.00 L 363.00 447.00 L 363.00 447.00 L 362.00 448.00 L 362.00 448.00 L 361.00 449.00 L 361.00 449.00 L 360.00 450.00 L 360.00 450.00 L 359.00 451.00 L 359.00 451.00 L 358.00 452.00 L 358.00 452.00 L 357.00 453.00 L 357.00 453.00 L 356.00 454.00 L 356.00 454.00 L 355.00 455.00 L 355.00 455.00 L 354.00 456.00 L 354.00 456.00 L 353.00 457.00 L 353.00 457.00 L 352.00 458.00 L 352.00 458.00 L 351.00 459.00 L 351.00 459.00 L 350.00 460.00 L 350.00 460.00 L 349.00 461.00 L 349.00 461.00 L 348.00 462.00 L 348.00 462.00 L 347.00 463.00 L 347.00 463.00 L 346.00 464.00 L 346.00 464.00 L 345.00 465.00 L 345.00 465.00 L 344.00 466.00 L 344.00 466.00 L 343.00 467.00 L 343.00 467.00 L 342.00 468.00 L 342.00 468.00 L 341.00 469.00 L 341.00 469.00 L 340.00 470.00 L 340.00 470.00 L 339.00 471.00 L 339.00 471.00 L 338.00 472.00 L 338.00 472.00 L 337.00 473.00 L 337.00 473.00 L 336.00 474.00 L 336.00 474.00 L 335.00 475.00 L 335.00 475.00 L 334.00 476.00 L 334.00 476.00 L 333.00 477.00 L 333.00 477.00 L 332.00 478.00 L 332.00 478.00 L 331.00 479.00 L 331.00 479.00 L 330.00 480.00 L 330.00 480.00 L 329.00 481.00 L 328.00 481.00 L 328.00 481.00 L 327.00 482.00 L 327.00 482.00 L 326.00 483.00 L 326.00 483.00 L 325.00 484.00 L 324.00 484.00 L 324.00 484.00 L 323.00 485.00 L 323.00 485.00 L 322.00 486.00 L 321.00 486.00 L 321.00 486.00 L 320.00 487.00 L 319.00 487.00 L 319.00 487.00 L 318.00 488.00 L 317.00 488.00 L 317.00 488.00 L 316.00 489.00 L 315.00 489.00 L 314.00 489.00 L 314.00 489.00 L 313.00 490.00 L 312.00 490.00 L 312.00 490.00 L 311.00 491.00 L 310.00 491.00 L 310.00 491.00 L 309.00 492.00 L 308.00 492.00 L 307.00 492.00 L 306.00 492.00 L 305.00 492.00 L 305.00 492.00 L 304.00 493.00 L 303.00 493.00 L 302.00 493.00 L 301.00 493.00 L 300.00 493.00 L 300.00 493.00 L 299.00 494.00 Z" fill="black" /><path d="M 548.00 216.00 L 549.00 215.00 L 549.00 215.00 L 550.00 214.00 L 550.00 214.00 L 551.00 213.00 L 551.00 213.00 L 552.00 212.00 L 552.00 212.00 L 553.00 211.00 L 553.00 211.00 L 554.00 210.00 L 554.00 210.00 L 555.00 209.00 L 555.00 209.00 L 556.00 208.00 L 556.00 208.00 L 557.00 207.00 L 557.00 207.00 L 558.00 206.00 L 558.00 206.00 L 559.00 205.00 L 559.00 205.00 L 560.00 204.00 L 560.00 204.00 L 561.00 203.00 L 561.00 203.00 L 562.00 202.00 L 562.00 202.00 L 563.00 201.00 L 563.00 201.00 L 564.00 200.00 L 564.00 200.00 L 565.00 199.00 L 565.00 199.00 L 566.00 198.00 L 566.00 198.00 L 567.00 197.00 L 567.00 197.00 L 568.00 196.00 L 568.00 196.00 L 569.00 195.00 L 569.00 195.00 L 569.00 194.00 L 570.00 193.00 L 570.00 193.00 L 571.00 192.00 L 571.00 192.00 L 571.00 191.00 L 571.00 190.00 L 571.00 189.00 L 572.00 188.00 L 572.00 188.00 L 572.00 187.00 L 572.00 186.00 L 572.00 185.00 L 573.00 184.00 L 573.00 184.00 L 573.00 183.00 L 573.00 182.00 L 573.00 181.00 L 573.00 180.00 L 573.00 179.00 L 573.00 178.00 L 573.00 178.00 L 572.00 177.00 L 572.00 176.00 L 572.00 175.00 L 572.00 174.00 L 572.00 173.00 L 572.00 173.00 L 571.00 172.00 L 571.00 171.00 L 571.00 170.00 L 571.00 169.00 L 571.00 169.00 L 570.00 168.00 L 570.00 168.00 L 569.00 167.00 L 569.00 166.00 L 569.00 166.00 L 568.00 165.00 L 568.00 165.00 L 567.00 164.00 L 567.00 164.00 L 566.00 163.00 L 566.00 163.00 L 565.00 162.00 L 565.00 162.00 L 564.00 161.00 L 564.00 161.00 L 563.00 160.00 L 563.00 160.00 L 562.00 159.00 L 562.00 159.00 L 561.00 159.00 L 560.00 158.00 L 560.00 158.00 L 559.00 157.00 L 559.00 157.00 L 558.00 157.00 L 557.00 157.00 L 556.00 157.00 L 555.00 156.00 L 555.00 156.00 L 554.00 156.00 L 553.00 156.00 L 552.00 156.00 L 551.00 156.00 L 550.00 155.00 L 550.00 155.00 L 549.00 155.00 L 548.00 155.00 L 547.00 155.00 L 546.00 155.00 L 545.00 155.00 L 544.00 155.00 L 544.00 155.00 L 543.00 156.00 L 542.00 156.00 L 541.00 156.00 L 540.00 156.00 L 540.00 156.00 L 539.00 157.00 L 538.00 157.00 L 537.00 157.00 L 536.00 157.00 L 536.00 157.00 L 535.00 158.00 L 535.00 158.00 L 534.00 159.00 L 533.00 159.00 L 533.00 159.00 L 532.00 160.00 L 532.00 160.00 L 531.00 161.00 L 531.00 161.00 L 530.00 162.00 L 530.00 162.00 L 529.00 163.00 L 529.00 163.00 L 528.00 164.00 L 528.00 164.00 L 527.00 165.00 L 527.00 165.00 L 526.00 166.00 L 526.00 166.00 L 525.00 167.00 L 525.00 167.00 L 524.00 168.00 L 524.00 168.00 L 523.00 169.00 L 523.00 169.00 L 522.00 170.00 L 522.00 170.00 L 521.00 171.00 L 521.00 171.00 L 520.00 172.00 L 520.00 172.00 L 519.00 173.00 L 519.00 173.00 L 518.00 174.00 L 518.00 174.00 L 517.00 175.00 L 517.00 175.00 L 516.00 176.00 L 516.00 176.00 L 515.00 177.00 L 515.00 177.00 L 514.00 178.00 L 514.00 178.00 L 513.00 179.00 L 513.00 179.00 L 512.00 180.00 L 512.00 180.00 L 512.00 181.00 L 512.00 181.00 L 513.00 182.00 L 513.00 182.00 L 514.00 183.00 L 514.00 183.00 L 515.00 184.00 L 515.00 184.00 L 516.00 185.00 L 516.00 185.00 L 517.00 186.00 L 517.00 186.00 L 518.00 187.00 L 518.00 187.00 L 519.00 188.00 L 519.00 188.00 L 520.00 189.00 L 520.00 189.00 L 521.00 190.00 L 521.00 190.00 L 522.00 191.00 L 522.00 191.00 L 523.00 192.00 L 523.00 192.00 L 524.00 193.00 L 524.00 193.00 L 525.00 194.00 L 525.00 194.00 L 526.00 195.00 L 526.00 195.00 L 527.00 196.00 L 527.00 196.00 L 528.00 197.00 L 528.00 197.00 L 529.00 198.00 L 529.00 198.00 L 530.00 199.00 L 530.00 199.00 L 531.00 200.00 L 531.00 200.00 L 532.00 201.00 L 532.00 201.00 L 533.00 202.00 L 533.00 202.00 L 534.00 203.00 L 534.00 203.00 L 535.00 204.00 L 535.00 204.00 L 536.00 205.00 L 536.00 205.00 L 537.00 206.00 L 537.00 206.00 L 538.00 207.00 L 538.00 207.00 L 539.00 208.00 L 539.00 208.00 L 540.00 209.00 L 540.00 209.00 L 541.00 210.00 L 541.00 210.00 L 542.00 211.00 L 542.00 211.00 L 543.00 212.00 L 543.00 212.00 L 544.00 213.00 L 544.00 213.00 L 545.00 214.00 L 545.00 214.00 L 546.00 215.00 L 546.00 215.00 L 547.00 216.00 L 547.00 216.00 L 548.00 216.00 L 548.00 216.00 Z" fill="black" /><path d="M 296.00 462.00 L 297.00 461.00 L 298.00 461.00 L 299.00 461.00 L 300.00 461.00 L 300.00 461.00 L 301.00 460.00 L 302.00 460.00 L 302.00 460.00 L 303.00 459.00 L 304.00 459.00 L 304.00 459.00 L 305.00 458.00 L 305.00 458.00 L 306.00 457.00 L 307.00 457.00 L 307.00 457.00 L 308.00 456.00 L 308.00 456.00 L 309.00 455.00 L 309.00 455.00 L 310.00 454.00 L 310.00 454.00 L 311.00 453.00 L 311.00 453.00 L 312.00 452.00 L 312.00 452.00 L 313.00 451.00 L 313.00 451.00 L 314.00 450.00 L 314.00 450.00 L 315.00 449.00 L 315.00 449.00 L 316.00 448.00 L 316.00 448.00 L 317.00 447.00 L 317.00 447.00 L 318.00 446.00 L 318.00 446.00 L 319.00 445.00 L 319.00 445.00 L 320.00 444.00 L 320.00 444.00 L 321.00 443.00 L 321.00 443.00 L 322.00 442.00 L 322.00 442.00 L 323.00 441.00 L 323.00 441.00 L 324.00 440.00 L 324.00 440.00 L 325.00 439.00 L 325.00 439.00 L 326.00 438.00 L 326.00 438.00 L 327.00 437.00 L 327.00 437.00 L 328.00 436.00 L 328.00 436.00 L 329.00 435.00 L 329.00 435.00 L 330.00 434.00 L 330.00 434.00 L 331.00 433.00 L 331.00 433.00 L 332.00 432.00 L 332.00 432.00 L 333.00 431.00 L 333.00 431.00 L 334.00 430.00 L 334.00 430.00 L 335.00 429.00 L 335.00 429.00 L 336.00 428.00 L 336.00 428.00 L 337.00 427.00 L 337.00 427.00 L 338.00 426.00 L 338.00 426.00 L 339.00 425.00 L 339.00 425.00 L 340.00 424.00 L 340.00 424.00 L 341.00 423.00 L 341.00 423.00 L 342.00 422.00 L 342.00 422.00 L 343.00 421.00 L 343.00 421.00 L 344.00 420.00 L 344.00 420.00 L 345.00 419.00 L 345.00 419.00 L 346.00 418.00 L 346.00 418.00 L 347.00 417.00 L 347.00 417.00 L 348.00 416.00 L 348.00 416.00 L 349.00 415.00 L 349.00 415.00 L 350.00 414.00 L 350.00 414.00 L 351.00 413.00 L 351.00 413.00 L 352.00 412.00 L 352.00 412.00 L 353.00 411.00 L 353.00 411.00 L 354.00 410.00 L 354.00 410.00 L 355.00 409.00 L 355.00 409.00 L 356.00 408.00 L 356.00 408.00 L 357.00 407.00 L 357.00 407.00 L 358.00 406.00 L 358.00 406.00 L 359.00 405.00 L 359.00 405.00 L 360.00 404.00 L 360.00 404.00 L 361.00 403.00 L 361.00 403.00 L 362.00 402.00 L 362.00 402.00 L 363.00 401.00 L 363.00 401.00 L 364.00 400.00 L 364.00 400.00 L 365.00 399.00 L 365.00 399.00 L 366.00 398.00 L 366.00 398.00 L 367.00 397.00 L 367.00 397.00 L 368.00 396.00 L 368.00 396.00 L 369.00 395.00 L 369.00 395.00 L 370.00 394.00 L 370.00 394.00 L 371.00 393.00 L 371.00 393.00 L 372.00 392.00 L 372.00 392.00 L 373.00 391.00 L 373.00 391.00 L 374.00 390.00 L 374.00 390.00 L 375.00 389.00 L 375.00 389.00 L 376.00 388.00 L 376.00 388.00 L 377.00 387.00 L 377.00 387.00 L 378.00 386.00 L 378.00 386.00 L 379.00 385.00 L 379.00 385.00 L 380.00 384.00 L 380.00 384.00 L 381.00 383.00 L 381.00 383.00 L 382.00 382.00 L 382.00 382.00 L 383.00 381.00 L 383.00 381.00 L 384.00 380.00 L 384.00 380.00 L 385.00 379.00 L 385.00 379.00 L 386.00 378.00 L 386.00 378.00 L 387.00 377.00 L 387.00 377.00 L 388.00 376.00 L 388.00 376.00 L 389.00 375.00 L 389.00 375.00 L 390.00 374.00 L 390.00 374.00 L 391.00 373.00 L 391.00 373.00 L 392.00 372.00 L 392.00 372.00 L 393.00 371.00 L 393.00 371.00 L 394.00 370.00 L 394.00 370.00 L 395.00 369.00 L 395.00 369.00 L 396.00 368.00 L 396.00 368.00 L 397.00 367.00 L 397.00 367.00 L 398.00 366.00 L 398.00 366.00 L 399.00 365.00 L 399.00 365.00 L 400.00 364.00 L 400.00 364.00 L 401.00 363.00 L 401.00 363.00 L 402.00 362.00 L 402.00 362.00 L 403.00 361.00 L 403.00 361.00 L 404.00 360.00 L 404.00 360.00 L 405.00 359.00 L 405.00 359.00 L 406.00 358.00 L 406.00 358.00 L 407.00 357.00 L 407.00 357.00 L 408.00 356.00 L 408.00 356.00 L 409.00 355.00 L 409.00 355.00 L 410.00 354.00 L 410.00 354.00 L 411.00 353.00 L 411.00 353.00 L 412.00 352.00 L 412.00 352.00 L 413.00 351.00 L 413.00 351.00 L 414.00 350.00 L 414.00 350.00 L 415.00 349.00 L 415.00 349.00 L 416.00 348.00 L 416.00 348.00 L 417.00 347.00 L 417.00 347.00 L 418.00 346.00 L 418.00 346.00 L 419.00 345.00 L 419.00 345.00 L 420.00 344.00 L 420.00 344.00 L 421.00 343.00 L 421.00 343.00 L 422.00 342.00 L 422.00 342.00 L 423.00 341.00 L 423.00 341.00 L 424.00 340.00 L 424.00 340.00 L 425.00 339.00 L 425.00 339.00 L 426.00 338.00 L 426.00 338.00 L 427.00 337.00 L 427.00 337.00 L 428.00 336.00 L 428.00 336.00 L 429.00 335.00 L 429.00 335.00 L 430.00 334.00 L 430.00 334.00 L 431.00 333.00 L 431.00 333.00 L 432.00 332.00 L 432.00 332.00 L 433.00 331.00 L 433.00 331.00 L 434.00 330.00 L 434.00 330.00 L 435.00 329.00 L 435.00 329.00 L 436.00 328.00 L 436.00 328.00 L 437.00 327.00 L 437.00 327.00 L 438.00 326.00 L 438.00 326.00 L 439.00 325.00 L 439.00 325.00 L 440.00 324.00 L 440.00 324.00 L 441.00 323.00 L 441.00 323.00 L 442.00 322.00 L 442.00 322.00 L 443.00 321.00 L 443.00 321.00 L 444.00 320.00 L 444.00 320.00 L 445.00 319.00 L 445.00 319.00 L 446.00 318.00 L 446.00 318.00 L 447.00 317.00 L 447.00 317.00 L 448.00 316.00 L 448.00 316.00 L 449.00 315.00 L 449.00 315.00 L 450.00 314.00 L 450.00 314.00 L 451.00 313.00 L 451.00 313.00 L 452.00 312.00 L 452.00 312.00 L 453.00 311.00 L 453.00 311.00 L 454.00 310.00 L 454.00 310.00 L 455.00 309.00 L 455.00 309.00 L 456.00 308.00 L 456.00 308.00 L 457.00 307.00 L 457.00 307.00 L 458.00 306.00 L 458.00 306.00 L 459.00 305.00 L 459.00 305.00 L 460.00 304.00 L 460.00 304.00 L 461.00 303.00 L 461.00 303.00 L 462.00 302.00 L 462.00 302.00 L 463.00 301.00 L 463.00 301.00 L 464.00 300.00 L 464.00 300.00 L 465.00 299.00 L 465.00 299.00 L 466.00 298.00 L 466.00 298.00 L 467.00 297.00 L 467.00 297.00 L 468.00 296.00 L 468.00 296.00 L 469.00 295.00 L 469.00 295.00 L 470.00 294.00 L 470.00 294.00 L 471.00 293.00 L 471.00 293.00 L 472.00 292.00 L 472.00 292.00 L 473.00 291.00 L 473.00 291.00 L 474.00 290.00 L 474.00 290.00 L 475.00 289.00 L 475.00 289.00 L 476.00 288.00 L 476.00 288.00 L 477.00 287.00 L 477.00 287.00 L 478.00 286.00 L 478.00 286.00 L 479.00 285.00 L 479.00 285.00 L 480.00 284.00 L 480.00 284.00 L 481.00 283.00 L 481.00 283.00 L 482.00 282.00 L 482.00 282.00 L 483.00 281.00 L 483.00 281.00 L 484.00 280.00 L 484.00 280.00 L 485.00 279.00 L 485.00 279.00 L 486.00 278.00 L 486.00 278.00 L 487.00 277.00 L 487.00 277.00 L 488.00 276.00 L 488.00 276.00 L 489.00 275.00 L 489.00 275.00 L 490.00 274.00 L 490.00 274.00 L 491.00 273.00 L 491.00 273.00 L 492.00 272.00 L 492.00 272.00 L 493.00 271.00 L 493.00 271.00 L 494.00 270.00 L 494.00 270.00 L 495.00 269.00 L 495.00 269.00 L 496.00 268.00 L 496.00 268.00 L 497.00 267.00 L 497.00 267.00 L 498.00 266.00 L 498.00 266.00 L 499.00 265.00 L 499.00 265.00 L 500.00 264.00 L 500.00 264.00 L 501.00 263.00 L 501.00 263.00 L 502.00 262.00 L 502.00 262.00 L 503.00 261.00 L 503.00 261.00 L 504.00 260.00 L 504.00 260.00 L 505.00 259.00 L 505.00 259.00 L 506.00 258.00 L 506.00 258.00 L 507.00 257.00 L 507.00 257.00 L 508.00 256.00 L 508.00 256.00 L 509.00 255.00 L 509.00 255.00 L 510.00 254.00 L 510.00 254.00 L 511.00 253.00 L 511.00 253.00 L 512.00 252.00 L 512.00 252.00 L 513.00 251.00 L 513.00 251.00 L 514.00 250.00 L 514.00 250.00 L 515.00 249.00 L 515.00 249.00 L 516.00 248.00 L 516.00 248.00 L 517.00 247.00 L 517.00 247.00 L 518.00 246.00 L 518.00 246.00 L 519.00 245.00 L 519.00 245.00 L 520.00 244.00 L 520.00 244.00 L 521.00 243.00 L 521.00 243.00 L 522.00 242.00 L 522.00 242.00 L 523.00 241.00 L 523.00 241.00 L 524.00 240.00 L 524.00 240.00 L 525.00 239.00 L 525.00 239.00 L 525.00 239.00 L 524.00 238.00 L 524.00 238.00 L 523.00 237.00 L 523.00 237.00 L 522.00 236.00 L 522.00 236.00 L 521.00 235.00 L 521.00 235.00 L 520.00 234.00 L 520.00 234.00 L 519.00 233.00 L 519.00 233.00 L 518.00 232.00 L 518.00 232.00 L 517.00 231.00 L 517.00 231.00 L 516.00 230.00 L 516.00 230.00 L 515.00 229.00 L 515.00 229.00 L 514.00 228.00 L 514.00 228.00 L 513.00 227.00 L 513.00 227.00 L 512.00 226.00 L 512.00 226.00 L 511.00 225.00 L 511.00 225.00 L 510.00 224.00 L 510.00 224.00 L 509.00 223.00 L 509.00 223.00 L 508.00 222.00 L 508.00 222.00 L 507.00 221.00 L 507.00 221.00 L 506.00 220.00 L 506.00 220.00 L 505.00 219.00 L 505.00 219.00 L 504.00 218.00 L 504.00 218.00 L 503.00 217.00 L 503.00 217.00 L 502.00 216.00 L 502.00 216.00 L 501.00 215.00 L 501.00 215.00 L 500.00 214.00 L 500.00 214.00 L 499.00 213.00 L 499.00 213.00 L 498.00 212.00 L 498.00 212.00 L 497.00 211.00 L 497.00 211.00 L 496.00 210.00 L 496.00 210.00 L 495.00 209.00 L 495.00 209.00 L 494.00 208.00 L 494.00 208.00 L 493.00 207.00 L 493.00 207.00 L 492.00 206.00 L 492.00 206.00 L 491.00 205.00 L 491.00 205.00 L 490.00 204.00 L 490.00 204.00 L 489.00 203.00 L 489.00 203.00 L 489.00 203.00 L 488.00 204.00 L 488.00 204.00 L 487.00 205.00 L 487.00 205.00 L 486.00 206.00 L 486.00 206.00 L 485.00 207.00 L 485.00 207.00 L 484.00 208.00 L 484.00 208.00 L 483.00 209.00 L 483.00 209.00 L 482.00 210.00 L 482.00 210.00 L 481.00 211.00 L 481.00 211.00 L 480.00 212.00 L 480.00 212.00 L 479.00 213.00 L 479.00 213.00 L 478.00 214.00 L 478.00 214.00 L 477.00 215.00 L 477.00 215.00 L 476.00 216.00 L 476.00 216.00 L 475.00 217.00 L 475.00 217.00 L 474.00 218.00 L 474.00 218.00 L 473.00 219.00 L 473.00 219.00 L 472.00 220.00 L 472.00 220.00 L 471.00 221.00 L 471.00 221.00 L 470.00 222.00 L 470.00 222.00 L 469.00 223.00 L 469.00 223.00 L 468.00 224.00 L 468.00 224.00 L 467.00 225.00 L 467.00 225.00 L 466.00 226.00 L 466.00 226.00 L 465.00 227.00 L 465.00 227.00 L 464.00 228.00 L 464.00 228.00 L 463.00 229.00 L 463.00 229.00 L 462.00 230.00 L 462.00 230.00 L 461.00 231.00 L 461.00 231.00 L 460.00 232.00 L 460.00 232.00 L 459.00 233.00 L 459.00 233.00 L 458.00 234.00 L 458.00 234.00 L 457.00 235.00 L 457.00 235.00 L 456.00 236.00 L 456.00 236.00 L 455.00 237.00 L 455.00 237.00 L 454.00 238.00 L 454.00 238.00 L 453.00 239.00 L 453.00 239.00 L 452.00 240.00 L 452.00 240.00 L 451.00 241.00 L 451.00 241.00 L 450.00 242.00 L 450.00 242.00 L 449.00 243.00 L 449.00 243.00 L 448.00 244.00 L 448.00 244.00 L 447.00 245.00 L 447.00 245.00 L 446.00 246.00 L 446.00 246.00 L 445.00 247.00 L 445.00 247.00 L 444.00 248.00 L 444.00 248.00 L 443.00 249.00 L 443.00 249.00 L 442.00 250.00 L 442.00 250.00 L 441.00 251.00 L 441.00 251.00 L 440.00 252.00 L 440.00 252.00 L 439.00 253.00 L 439.00 253.00 L 438.00 254.00 L 438.00 254.00 L 437.00 255.00 L 437.00 255.00 L 436.00 256.00 L 436.00 256.00 L 435.00 257.00 L 435.00 257.00 L 434.00 258.00 L 434.00 258.00 L 433.00 259.00 L 433.00 259.00 L 432.00 260.00 L 432.00 260.00 L 431.00 261.00 L 431.00 261.00 L 430.00 262.00 L 430.00 262.00 L 429.00 263.00 L 429.00 263.00 L 428.00 264.00 L 428.00 264.00 L 427.00 265.00 L 427.00 265.00 L 426.00 266.00 L 426.00 266.00 L 425.00 267.00 L 425.00 267.00 L 424.00 268.00 L 424.00 268.00 L 423.00 269.00 L 423.00 269.00 L 422.00 270.00 L 422.00 270.00 L 421.00 271.00 L 421.00 271.00 L 420.00 272.00 L 420.00 272.00 L 419.00 273.00 L 419.00 273.00 L 418.00 274.00 L 418.00 274.00 L 417.00 275.00 L 417.00 275.00 L 416.00 276.00 L 416.00 276.00 L 415.00 277.00 L 415.00 277.00 L 414.00 278.00 L 414.00 278.00 L 413.00 279.00 L 413.00 279.00 L 412.00 280.00 L 412.00 280.00 L 411.00 281.00 L 411.00 281.00 L 410.00 282.00 L 410.00 282.00 L 409.00 283.00 L 409.00 283.00 L 408.00 284.00 L 408.00 284.00 L 407.00 285.00 L 407.00 285.00 L 406.00 286.00 L 406.00 286.00 L 405.00 287.00 L 405.00 287.00 L 404.00 288.00 L 404.00 288.00 L 403.00 289.00 L 403.00 289.00 L 402.00 290.00 L 402.00 290.00 L 401.00 291.00 L 401.00 291.00 L 400.00 292.00 L 400.00 292.00 L 399.00 293.00 L 399.00 293.00 L 398.00 294.00 L 398.00 294.00 L 397.00 295.00 L 397.00 295.00 L 396.00 296.00 L 396.00 296.00 L 395.00 297.00 L 395.00 297.00 L 394.00 298.00 L 394.00 298.00 L 393.00 299.00 L 393.00 299.00 L 392.00 300.00 L 392.00 300.00 L 391.00 301.00 L 391.00 301.00 L 390.00 302.00 L 390.00 302.00 L 389.00 303.00 L 389.00 303.00 L 388.00 304.00 L 388.00 304.00 L 387.00 305.00 L 387.00 305.00 L 386.00 306.00 L 386.00 306.00 L 385.00 307.00 L 385.00 307.00 L 384.00 308.00 L 384.00 308.00 L 383.00 309.00 L 383.00 309.00 L 382.00 310.00 L 382.00 310.00 L 381.00 311.00 L 381.00 311.00 L 380.00 312.00 L 380.00 312.00 L 379.00 313.00 L 379.00 313.00 L 378.00 314.00 L 378.00 314.00 L 377.00 315.00 L 377.00 315.00 L 376.00 316.00 L 376.00 316.00 L 375.00 317.00 L 375.00 317.00 L 374.00 318.00 L 374.00 318.00 L 373.00 319.00 L 373.00 319.00 L 372.00 320.00 L 372.00 320.00 L 371.00 321.00 L 371.00 321.00 L 370.00 322.00 L 370.00 322.00 L 369.00 323.00 L 369.00 323.00 L 368.00 324.00 L 368.00 324.00 L 367.00 325.00 L 367.00 325.00 L 366.00 326.00 L 366.00 326.00 L 365.00 327.00 L 365.00 327.00 L 364.00 328.00 L 364.00 328.00 L 363.00 329.00 L 363.00 329.00 L 362.00 330.00 L 362.00 330.00 L 361.00 331.00 L 361.00 331.00 L 360.00 332.00 L 360.00 332.00 L 359.00 333.00 L 359.00 333.00 L 358.00 334.00 L 358.00 334.00 L 357.00 335.00 L 357.00 335.00 L 356.00 336.00 L 356.00 336.00 L 355.00 337.00 L 355.00 337.00 L 354.00 338.00 L 354.00 338.00 L 353.00 339.00 L 353.00 339.00 L 352.00 340.00 L 352.00 340.00 L 351.00 341.00 L 351.00 341.00 L 350.00 342.00 L 350.00 342.00 L 349.00 343.00 L 349.00 343.00 L 348.00 344.00 L 348.00 344.00 L 347.00 345.00 L 347.00 345.00 L 346.00 346.00 L 346.00 346.00 L 345.00 347.00 L 345.00 347.00 L 344.00 348.00 L 344.00 348.00 L 343.00 349.00 L 343.00 349.00 L 342.00 350.00 L 342.00 350.00 L 341.00 351.00 L 341.00 351.00 L 340.00 352.00 L 340.00 352.00 L 339.00 353.00 L 339.00 353.00 L 338.00 354.00 L 338.00 354.00 L 337.00 355.00 L 337.00 355.00 L 336.00 356.00 L 336.00 356.00 L 335.00 357.00 L 335.00 357.00 L 334.00 358.00 L 334.00 358.00 L 333.00 359.00 L 333.00 359.00 L 332.00 360.00 L 332.00 360.00 L 331.00 361.00 L 331.00 361.00 L 330.00 362.00 L 330.00 362.00 L 329.00 363.00 L 329.00 363.00 L 328.00 364.00 L 328.00 364.00 L 327.00 365.00 L 327.00 365.00 L 326.00 366.00 L 326.00 366.00 L 325.00 367.00 L 325.00 367.00 L 324.00 368.00 L 324.00 368.00 L 323.00 369.00 L 323.00 369.00 L 322.00 370.00 L 322.00 370.00 L 321.00 371.00 L 321.00 371.00 L 320.00 372.00 L 320.00 372.00 L 319.00 373.00 L 319.00 373.00 L 318.00 374.00 L 318.00 374.00 L 317.00 375.00 L 317.00 375.00 L 316.00 376.00 L 316.00 376.00 L 315.00 377.00 L 315.00 377.00 L 314.00 378.00 L 314.00 378.00 L 313.00 379.00 L 313.00 379.00 L 312.00 380.00 L 312.00 380.00 L 311.00 381.00 L 311.00 381.00 L 310.00 382.00 L 310.00 382.00 L 309.00 383.00 L 309.00 383.00 L 308.00 384.00 L 308.00 384.00 L 307.00 385.00 L 307.00 385.00 L 306.00 386.00 L 306.00 386.00 L 305.00 387.00 L 305.00 387.00 L 304.00 388.00 L 304.00 388.00 L 303.00 389.00 L 303.00 389.00 L 302.00 390.00 L 302.00 390.00 L 301.00 391.00 L 301.00 391.00 L 300.00 392.00 L 300.00 392.00 L 299.00 393.00 L 299.00 393.00 L 298.00 394.00 L 298.00 394.00 L 297.00 395.00 L 297.00 395.00 L 296.00 396.00 L 296.00 396.00 L 295.00 397.00 L 295.00 397.00 L 294.00 398.00 L 294.00 398.00 L 293.00 399.00 L 293.00 399.00 L 292.00 400.00 L 292.00 400.00 L 291.00 401.00 L 291.00 401.00 L 290.00 402.00 L 290.00 402.00 L 289.00 403.00 L 289.00 403.00 L 288.00 404.00 L 288.00 404.00 L 287.00 405.00 L 287.00 405.00 L 286.00 406.00 L 286.00 406.00 L 285.00 407.00 L 285.00 407.00 L 284.00 408.00 L 284.00 408.00 L 283.00 409.00 L 283.00 409.00 L 282.00 410.00 L 282.00 410.00 L 281.00 411.00 L 281.00 411.00 L 280.00 412.00 L 280.00 412.00 L 279.00 413.00 L 279.00 413.00 L 278.00 414.00 L 278.00 414.00 L 277.00 415.00 L 277.00 415.00 L 276.00 416.00 L 276.00 416.00 L 275.00 417.00 L 275.00 417.00 L 274.00 418.00 L 274.00 418.00 L 273.00 419.00 L 273.00 419.00 L 272.00 420.00 L 272.00 420.00 L 271.00 421.00 L 271.00 421.00 L 271.00 422.00 L 270.00 423.00 L 270.00 423.00 L 269.00 424.00 L 269.00 424.00 L 269.00 425.00 L 268.00 426.00 L 268.00 426.00 L 268.00 427.00 L 267.00 428.00 L 267.00 428.00 L 267.00 429.00 L 267.00 430.00 L 267.00 431.00 L 266.00 432.00 L 266.00 432.00 L 266.00 433.00 L 266.00 434.00 L 266.00 435.00 L 266.00 436.00 L 266.00 437.00 L 266.00 438.00 L 266.00 439.00 L 266.00 440.00 L 266.00 441.00 L 266.00 441.00 L 267.00 442.00 L 267.00 443.00 L 267.00 444.00 L 267.00 444.00 L 268.00 445.00 L 268.00 446.00 L 268.00 446.00 L 269.00 447.00 L 269.00 448.00 L 269.00 448.00 L 270.00 449.00 L 270.00 450.00 L 270.00 450.00 L 271.00 451.00 L 271.00 451.00 L 272.00 452.00 L 272.00 452.00 L 273.00 453.00 L 273.00 453.00 L 274.00 454.00 L 274.00 454.00 L 275.00 455.00 L 275.00 455.00 L 276.00 456.00 L 276.00 456.00 L 277.00 457.00 L 277.00 457.00 L 278.00 458.00 L 278.00 458.00 L 279.00 458.00 L 280.00 459.00 L 280.00 459.00 L 281.00 459.00 L 282.00 460.00 L 282.00 460.00 L 283.00 460.00 L 284.00 460.00 L 285.00 461.00 L 285.00 461.00 L 286.00 461.00 L 287.00 462.00 L 287.00 462.00 L 288.00 462.00 L 289.00 462.00 L 290.00 462.00 L 291.00 462.00 L 292.00 462.00 L 293.00 462.00 L 294.00 462.00 L 295.00 462.00 L 296.00 462.00 L 296.00 462.00 Z" fill="black" /><path d="M 314.00 290.00 L 313.00 290.00 L 312.00 290.00 L 311.00 290.00 L 310.00 290.00 L 309.00 290.00 L 308.00 289.00 L 308.00 289.00 L 307.00 289.00 L 306.00 289.00 L 305.00 288.00 L 305.00 288.00 L 304.00 288.00 L 303.00 288.00 L 302.00 287.00 L 302.00 287.00 L 301.00 287.00 L 300.00 287.00 L 299.00 287.00 L 298.00 287.00 L 297.00 286.00 L 297.00 286.00 L 296.00 286.00 L 295.00 286.00 L 294.00 286.00 L 293.00 285.00 L 293.00 285.00 L 292.00 285.00 L 291.00 285.00 L 290.00 284.00 L 290.00 284.00 L 289.00 284.00 L 288.00 284.00 L 287.00 283.00 L 287.00 283.00 L 286.00 283.00 L 285.00 283.00 L 284.00 282.00 L 284.00 282.00 L 283.00 282.00 L 282.00 282.00 L 281.00 282.00 L 280.00 282.00 L 280.00 282.00 L 279.00 283.00 L 278.00 283.00 L 277.00 283.00 L 277.00 283.00 L 276.00 284.00 L 275.00 284.00 L 274.00 284.00 L 274.00 284.00 L 273.00 285.00 L 272.00 285.00 L 271.00 285.00 L 271.00 285.00 L 270.00 286.00 L 269.00 286.00 L 268.00 286.00 L 267.00 286.00 L 267.00 286.00 L 266.00 287.00 L 265.00 287.00 L 264.00 287.00 L 263.00 287.00 L 262.00 287.00 L 262.00 287.00 L 261.00 288.00 L 260.00 288.00 L 259.00 288.00 L 259.00 288.00 L 258.00 289.00 L 257.00 289.00 L 256.00 289.00 L 256.00 289.00 L 255.00 290.00 L 254.00 290.00 L 253.00 290.00 L 252.00 290.00 L 251.00 290.00 L 250.00 290.00 L 249.00 289.00 L 249.00 289.00 L 248.00 289.00 L 247.00 288.00 L 247.00 288.00 L 246.00 288.00 L 245.00 287.00 L 245.00 287.00 L 244.00 286.00 L 244.00 286.00 L 243.00 285.00 L 243.00 285.00 L 242.00 284.00 L 242.00 283.00 L 242.00 282.00 L 242.00 282.00 L 241.00 281.00 L 241.00 280.00 L 241.00 279.00 L 241.00 278.00 L 241.00 277.00 L 241.00 276.00 L 242.00 275.00 L 242.00 275.00 L 242.00 274.00 L 242.00 273.00 L 243.00 272.00 L 243.00 272.00 L 243.00 271.00 L 243.00 270.00 L 243.00 269.00 L 244.00 268.00 L 244.00 268.00 L 244.00 267.00 L 244.00 266.00 L 245.00 265.00 L 245.00 265.00 L 245.00 264.00 L 245.00 263.00 L 246.00 262.00 L 246.00 262.00 L 246.00 261.00 L 246.00 260.00 L 247.00 259.00 L 247.00 259.00 L 247.00 258.00 L 247.00 257.00 L 248.00 256.00 L 248.00 256.00 L 248.00 255.00 L 248.00 254.00 L 249.00 253.00 L 249.00 253.00 L 249.00 252.00 L 249.00 251.00 L 250.00 250.00 L 250.00 250.00 L 250.00 249.00 L 250.00 249.00 L 249.00 248.00 L 249.00 247.00 L 249.00 246.00 L 249.00 246.00 L 248.00 245.00 L 248.00 244.00 L 248.00 243.00 L 248.00 243.00 L 247.00 242.00 L 247.00 241.00 L 247.00 240.00 L 247.00 240.00 L 246.00 239.00 L 246.00 238.00 L 246.00 237.00 L 246.00 237.00 L 245.00 236.00 L 245.00 235.00 L 245.00 234.00 L 245.00 234.00 L 244.00 233.00 L 244.00 232.00 L 244.00 231.00 L 244.00 230.00 L 244.00 230.00 L 243.00 229.00 L 243.00 228.00 L 243.00 227.00 L 243.00 227.00 L 242.00 226.00 L 242.00 225.00 L 242.00 224.00 L 242.00 224.00 L 241.00 223.00 L 241.00 222.00 L 241.00 221.00 L 241.00 220.00 L 241.00 219.00 L 241.00 218.00 L 242.00 217.00 L 242.00 217.00 L 242.00 216.00 L 242.00 215.00 L 243.00 214.00 L 243.00 214.00 L 244.00 213.00 L 244.00 213.00 L 245.00 212.00 L 245.00 212.00 L 246.00 211.00 L 246.00 211.00 L 247.00 210.00 L 248.00 210.00 L 248.00 210.00 L 249.00 209.00 L 250.00 209.00 L 251.00 209.00 L 252.00 209.00 L 253.00 209.00 L 254.00 209.00 L 255.00 209.00 L 256.00 209.00 L 257.00 209.00 L 258.00 210.00 L 258.00 210.00 L 259.00 210.00 L 260.00 210.00 L 261.00 211.00 L 261.00 211.00 L 262.00 211.00 L 263.00 211.00 L 264.00 212.00 L 264.00 212.00 L 265.00 212.00 L 266.00 212.00 L 267.00 213.00 L 267.00 213.00 L 268.00 213.00 L 269.00 213.00 L 270.00 214.00 L 270.00 214.00 L 271.00 214.00 L 272.00 214.00 L 273.00 214.00 L 274.00 215.00 L 274.00 215.00 L 275.00 215.00 L 276.00 216.00 L 276.00 216.00 L 277.00 216.00 L 278.00 216.00 L 279.00 216.00 L 280.00 216.00 L 281.00 216.00 L 282.00 217.00 L 282.00 217.00 L 282.00 217.00 L 283.00 216.00 L 284.00 216.00 L 285.00 216.00 L 286.00 216.00 L 287.00 216.00 L 288.00 216.00 L 288.00 216.00 L 289.00 215.00 L 290.00 215.00 L 290.00 215.00 L 291.00 214.00 L 292.00 214.00 L 293.00 214.00 L 294.00 214.00 L 294.00 214.00 L 295.00 213.00 L 296.00 213.00 L 297.00 213.00 L 297.00 213.00 L 298.00 212.00 L 299.00 212.00 L 300.00 212.00 L 300.00 212.00 L 301.00 211.00 L 302.00 211.00 L 303.00 211.00 L 303.00 211.00 L 304.00 210.00 L 305.00 210.00 L 306.00 210.00 L 306.00 210.00 L 307.00 209.00 L 308.00 209.00 L 309.00 209.00 L 310.00 209.00 L 311.00 209.00 L 312.00 209.00 L 313.00 209.00 L 314.00 209.00 L 315.00 209.00 L 316.00 210.00 L 316.00 210.00 L 317.00 210.00 L 318.00 211.00 L 318.00 211.00 L 319.00 212.00 L 319.00 212.00 L 320.00 213.00 L 320.00 213.00 L 321.00 214.00 L 321.00 214.00 L 322.00 215.00 L 322.00 216.00 L 322.00 217.00 L 322.00 217.00 L 323.00 218.00 L 323.00 219.00 L 323.00 220.00 L 323.00 221.00 L 323.00 222.00 L 322.00 223.00 L 322.00 223.00 L 322.00 224.00 L 322.00 225.00 L 322.00 226.00 L 321.00 227.00 L 321.00 227.00 L 321.00 228.00 L 321.00 229.00 L 320.00 230.00 L 320.00 230.00 L 320.00 231.00 L 320.00 232.00 L 320.00 233.00 L 319.00 234.00 L 319.00 234.00 L 319.00 235.00 L 319.00 236.00 L 318.00 237.00 L 318.00 237.00 L 318.00 238.00 L 318.00 239.00 L 317.00 240.00 L 317.00 240.00 L 317.00 241.00 L 317.00 242.00 L 316.00 243.00 L 316.00 243.00 L 316.00 244.00 L 316.00 245.00 L 315.00 246.00 L 315.00 246.00 L 315.00 247.00 L 315.00 248.00 L 314.00 249.00 L 314.00 249.00 L 314.00 250.00 L 314.00 250.00 L 315.00 251.00 L 315.00 252.00 L 315.00 253.00 L 315.00 253.00 L 316.00 254.00 L 316.00 255.00 L 316.00 256.00 L 316.00 256.00 L 317.00 257.00 L 317.00 258.00 L 317.00 259.00 L 317.00 259.00 L 318.00 260.00 L 318.00 261.00 L 318.00 262.00 L 318.00 262.00 L 319.00 263.00 L 319.00 264.00 L 319.00 265.00 L 319.00 265.00 L 320.00 266.00 L 320.00 267.00 L 320.00 268.00 L 320.00 268.00 L 321.00 269.00 L 321.00 270.00 L 321.00 271.00 L 321.00 272.00 L 321.00 272.00 L 322.00 273.00 L 322.00 274.00 L 322.00 275.00 L 322.00 275.00 L 323.00 276.00 L 323.00 277.00 L 323.00 278.00 L 323.00 279.00 L 323.00 280.00 L 323.00 281.00 L 322.00 282.00 L 322.00 282.00 L 322.00 283.00 L 322.00 284.00 L 321.00 285.00 L 321.00 285.00 L 320.00 286.00 L 320.00 286.00 L 319.00 287.00 L 319.00 287.00 L 318.00 288.00 L 318.00 288.00 L 317.00 289.00 L 316.00 289.00 L 315.00 289.00 L 315.00 289.00 L 314.00 290.00 Z" fill="black" /><path d="M 295.00 263.00 L 295.00 262.00 L 295.00 261.00 L 295.00 261.00 L 294.00 260.00 L 294.00 259.00 L 294.00 258.00 L 294.00 258.00 L 293.00 257.00 L 293.00 256.00 L 293.00 255.00 L 293.00 255.00 L 292.00 254.00 L 292.00 253.00 L 292.00 252.00 L 292.00 251.00 L 292.00 251.00 L 291.00 250.00 L 291.00 249.00 L 292.00 248.00 L 292.00 248.00 L 292.00 247.00 L 292.00 246.00 L 292.00 245.00 L 293.00 244.00 L 293.00 244.00 L 293.00 243.00 L 293.00 242.00 L 294.00 241.00 L 294.00 241.00 L 294.00 240.00 L 294.00 239.00 L 295.00 238.00 L 295.00 238.00 L 295.00 237.00 L 295.00 237.00 L 294.00 237.00 L 293.00 237.00 L 293.00 237.00 L 292.00 238.00 L 291.00 238.00 L 290.00 238.00 L 289.00 238.00 L 289.00 238.00 L 288.00 239.00 L 287.00 239.00 L 286.00 239.00 L 285.00 239.00 L 285.00 239.00 L 284.00 240.00 L 283.00 240.00 L 282.00 240.00 L 281.00 240.00 L 280.00 240.00 L 279.00 239.00 L 279.00 239.00 L 278.00 239.00 L 277.00 239.00 L 276.00 239.00 L 275.00 238.00 L 275.00 238.00 L 274.00 238.00 L 273.00 238.00 L 272.00 238.00 L 271.00 237.00 L 271.00 237.00 L 270.00 237.00 L 269.00 237.00 L 269.00 237.00 L 269.00 238.00 L 269.00 238.00 L 270.00 239.00 L 270.00 240.00 L 270.00 241.00 L 270.00 241.00 L 271.00 242.00 L 271.00 243.00 L 271.00 244.00 L 271.00 244.00 L 272.00 245.00 L 272.00 246.00 L 272.00 247.00 L 272.00 248.00 L 272.00 248.00 L 273.00 249.00 L 272.00 250.00 L 272.00 250.00 L 272.00 251.00 L 272.00 252.00 L 272.00 253.00 L 272.00 254.00 L 271.00 255.00 L 271.00 255.00 L 271.00 256.00 L 271.00 257.00 L 270.00 258.00 L 270.00 258.00 L 270.00 259.00 L 270.00 260.00 L 269.00 261.00 L 269.00 261.00 L 269.00 262.00 L 269.00 263.00 L 269.00 263.00 L 269.00 263.00 L 270.00 262.00 L 271.00 262.00 L 272.00 262.00 L 272.00 262.00 L 273.00 261.00 L 274.00 261.00 L 275.00 261.00 L 276.00 261.00 L 276.00 261.00 L 277.00 260.00 L 278.00 260.00 L 279.00 260.00 L 279.00 260.00 L 280.00 259.00 L 281.00 259.00 L 282.00 259.00 L 283.00 259.00 L 284.00 259.00 L 285.00 260.00 L 285.00 260.00 L 286.00 260.00 L 287.00 260.00 L 288.00 261.00 L 288.00 261.00 L 289.00 261.00 L 290.00 261.00 L 291.00 261.00 L 292.00 262.00 L 292.00 262.00 L 293.00 262.00 L 294.00 262.00 L 295.00 263.00 L 295.00 263.00 L 295.00 263.00 Z" fill="black" /><path d="M 611.00 388.00 L 610.00 388.00 L 609.00 388.00 L 608.00 388.00 L 607.00 388.00 L 606.00 388.00 L 605.00 388.00 L 604.00 388.00 L 603.00 388.00 L 602.00 388.00 L 601.00 387.00 L 601.00 387.00 L 600.00 387.00 L 599.00 387.00 L 598.00 386.00 L 598.00 386.00 L 597.00 386.00 L 596.00 386.00 L 595.00 385.00 L 595.00 385.00 L 594.00 385.00 L 593.00 385.00 L 592.00 384.00 L 592.00 384.00 L 591.00 384.00 L 590.00 384.00 L 589.00 383.00 L 589.00 383.00 L 588.00 383.00 L 587.00 383.00 L 586.00 383.00 L 585.00 382.00 L 585.00 382.00 L 584.00 382.00 L 583.00 381.00 L 583.00 381.00 L 582.00 381.00 L 581.00 381.00 L 580.00 381.00 L 579.00 381.00 L 578.00 381.00 L 577.00 380.00 L 577.00 380.00 L 577.00 380.00 L 576.00 381.00 L 575.00 381.00 L 574.00 381.00 L 573.00 381.00 L 572.00 381.00 L 571.00 381.00 L 571.00 381.00 L 570.00 382.00 L 569.00 382.00 L 569.00 382.00 L 568.00 383.00 L 567.00 383.00 L 566.00 383.00 L 565.00 383.00 L 565.00 383.00 L 564.00 384.00 L 563.00 384.00 L 562.00 384.00 L 562.00 384.00 L 561.00 385.00 L 560.00 385.00 L 559.00 385.00 L 559.00 385.00 L 558.00 386.00 L 557.00 386.00 L 556.00 386.00 L 556.00 386.00 L 555.00 387.00 L 554.00 387.00 L 553.00 387.00 L 553.00 387.00 L 552.00 388.00 L 551.00 388.00 L 550.00 388.00 L 549.00 388.00 L 548.00 388.00 L 547.00 388.00 L 546.00 388.00 L 545.00 388.00 L 544.00 388.00 L 543.00 387.00 L 543.00 387.00 L 542.00 387.00 L 541.00 386.00 L 541.00 386.00 L 540.00 385.00 L 540.00 385.00 L 539.00 384.00 L 539.00 384.00 L 538.00 383.00 L 538.00 383.00 L 537.00 382.00 L 537.00 381.00 L 537.00 380.00 L 537.00 380.00 L 536.00 379.00 L 536.00 378.00 L 536.00 377.00 L 536.00 376.00 L 536.00 375.00 L 537.00 374.00 L 537.00 374.00 L 537.00 373.00 L 537.00 372.00 L 537.00 371.00 L 538.00 370.00 L 538.00 370.00 L 538.00 369.00 L 538.00 368.00 L 539.00 367.00 L 539.00 367.00 L 539.00 366.00 L 539.00 365.00 L 539.00 364.00 L 540.00 363.00 L 540.00 363.00 L 540.00 362.00 L 540.00 361.00 L 541.00 360.00 L 541.00 360.00 L 541.00 359.00 L 541.00 358.00 L 542.00 357.00 L 542.00 357.00 L 542.00 356.00 L 542.00 355.00 L 543.00 354.00 L 543.00 354.00 L 543.00 353.00 L 543.00 352.00 L 544.00 351.00 L 544.00 351.00 L 544.00 350.00 L 544.00 349.00 L 545.00 348.00 L 545.00 348.00 L 545.00 347.00 L 545.00 347.00 L 544.00 346.00 L 544.00 345.00 L 544.00 344.00 L 544.00 344.00 L 543.00 343.00 L 543.00 342.00 L 543.00 341.00 L 543.00 341.00 L 542.00 340.00 L 542.00 339.00 L 542.00 338.00 L 542.00 338.00 L 541.00 337.00 L 541.00 336.00 L 541.00 335.00 L 541.00 335.00 L 540.00 334.00 L 540.00 333.00 L 540.00 332.00 L 540.00 332.00 L 539.00 331.00 L 539.00 330.00 L 539.00 329.00 L 539.00 329.00 L 538.00 328.00 L 538.00 327.00 L 538.00 326.00 L 538.00 325.00 L 538.00 325.00 L 537.00 324.00 L 537.00 323.00 L 537.00 322.00 L 537.00 322.00 L 536.00 321.00 L 536.00 320.00 L 536.00 319.00 L 536.00 318.00 L 536.00 317.00 L 536.00 316.00 L 537.00 315.00 L 537.00 315.00 L 537.00 314.00 L 537.00 313.00 L 538.00 312.00 L 538.00 312.00 L 539.00 311.00 L 539.00 311.00 L 540.00 310.00 L 540.00 310.00 L 541.00 309.00 L 542.00 309.00 L 542.00 309.00 L 543.00 308.00 L 544.00 308.00 L 545.00 308.00 L 546.00 308.00 L 546.00 308.00 L 547.00 307.00 L 548.00 307.00 L 549.00 307.00 L 550.00 307.00 L 551.00 308.00 L 551.00 308.00 L 552.00 308.00 L 553.00 308.00 L 554.00 309.00 L 554.00 309.00 L 555.00 309.00 L 556.00 309.00 L 557.00 310.00 L 557.00 310.00 L 558.00 310.00 L 559.00 310.00 L 560.00 310.00 L 561.00 310.00 L 562.00 311.00 L 562.00 311.00 L 563.00 311.00 L 564.00 311.00 L 565.00 311.00 L 566.00 312.00 L 566.00 312.00 L 567.00 312.00 L 568.00 312.00 L 569.00 313.00 L 569.00 313.00 L 570.00 313.00 L 571.00 313.00 L 572.00 314.00 L 572.00 314.00 L 573.00 314.00 L 574.00 314.00 L 575.00 315.00 L 575.00 315.00 L 576.00 315.00 L 577.00 315.00 L 578.00 315.00 L 579.00 315.00 L 579.00 315.00 L 580.00 314.00 L 581.00 314.00 L 582.00 314.00 L 582.00 314.00 L 583.00 313.00 L 584.00 313.00 L 585.00 313.00 L 585.00 313.00 L 586.00 312.00 L 587.00 312.00 L 588.00 312.00 L 588.00 312.00 L 589.00 311.00 L 590.00 311.00 L 591.00 311.00 L 592.00 311.00 L 592.00 311.00 L 593.00 310.00 L 594.00 310.00 L 595.00 310.00 L 596.00 310.00 L 597.00 310.00 L 597.00 310.00 L 598.00 309.00 L 599.00 309.00 L 600.00 309.00 L 600.00 309.00 L 601.00 308.00 L 602.00 308.00 L 603.00 308.00 L 603.00 308.00 L 604.00 307.00 L 605.00 307.00 L 606.00 307.00 L 607.00 307.00 L 608.00 307.00 L 609.00 308.00 L 609.00 308.00 L 610.00 308.00 L 611.00 308.00 L 612.00 309.00 L 612.00 309.00 L 613.00 309.00 L 614.00 310.00 L 614.00 310.00 L 615.00 311.00 L 615.00 311.00 L 616.00 312.00 L 616.00 312.00 L 617.00 313.00 L 617.00 314.00 L 617.00 315.00 L 617.00 315.00 L 618.00 316.00 L 618.00 317.00 L 618.00 318.00 L 618.00 319.00 L 618.00 320.00 L 618.00 321.00 L 617.00 322.00 L 617.00 322.00 L 617.00 323.00 L 617.00 324.00 L 616.00 325.00 L 616.00 325.00 L 616.00 326.00 L 616.00 327.00 L 616.00 328.00 L 615.00 329.00 L 615.00 329.00 L 615.00 330.00 L 615.00 331.00 L 614.00 332.00 L 614.00 332.00 L 614.00 333.00 L 614.00 334.00 L 613.00 335.00 L 613.00 335.00 L 613.00 336.00 L 613.00 337.00 L 612.00 338.00 L 612.00 338.00 L 612.00 339.00 L 612.00 340.00 L 611.00 341.00 L 611.00 341.00 L 611.00 342.00 L 611.00 343.00 L 610.00 344.00 L 610.00 344.00 L 610.00 345.00 L 610.00 346.00 L 609.00 347.00 L 609.00 347.00 L 609.00 348.00 L 609.00 348.00 L 610.00 349.00 L 610.00 350.00 L 610.00 351.00 L 610.00 351.00 L 611.00 352.00 L 611.00 353.00 L 611.00 354.00 L 611.00 354.00 L 612.00 355.00 L 612.00 356.00 L 612.00 357.00 L 612.00 357.00 L 613.00 358.00 L 613.00 359.00 L 613.00 360.00 L 613.00 360.00 L 614.00 361.00 L 614.00 362.00 L 614.00 363.00 L 614.00 363.00 L 615.00 364.00 L 615.00 365.00 L 615.00 366.00 L 615.00 367.00 L 615.00 367.00 L 616.00 368.00 L 616.00 369.00 L 616.00 370.00 L 616.00 370.00 L 617.00 371.00 L 617.00 372.00 L 617.00 373.00 L 617.00 374.00 L 617.00 374.00 L 618.00 375.00 L 618.00 376.00 L 618.00 377.00 L 618.00 378.00 L 618.00 379.00 L 617.00 380.00 L 617.00 380.00 L 617.00 381.00 L 617.00 382.00 L 616.00 383.00 L 616.00 383.00 L 615.00 384.00 L 615.00 384.00 L 614.00 385.00 L 614.00 385.00 L 613.00 386.00 L 613.00 386.00 L 612.00 387.00 L 612.00 387.00 L 611.00 388.00 Z" fill="black" /><path d="M 590.00 360.00 L 590.00 359.00 L 590.00 359.00 L 589.00 358.00 L 589.00 357.00 L 589.00 356.00 L 589.00 356.00 L 588.00 355.00 L 588.00 354.00 L 588.00 353.00 L 588.00 353.00 L 587.00 352.00 L 587.00 351.00 L 587.00 350.00 L 587.00 349.00 L 587.00 349.00 L 586.00 348.00 L 586.00 347.00 L 587.00 346.00 L 587.00 346.00 L 587.00 345.00 L 587.00 344.00 L 587.00 343.00 L 588.00 342.00 L 588.00 342.00 L 588.00 341.00 L 588.00 340.00 L 589.00 339.00 L 589.00 339.00 L 589.00 338.00 L 589.00 337.00 L 590.00 336.00 L 590.00 336.00 L 590.00 335.00 L 590.00 334.00 L 590.00 334.00 L 590.00 334.00 L 589.00 335.00 L 588.00 335.00 L 587.00 335.00 L 587.00 335.00 L 586.00 336.00 L 585.00 336.00 L 584.00 336.00 L 583.00 336.00 L 583.00 336.00 L 582.00 337.00 L 581.00 337.00 L 580.00 337.00 L 580.00 337.00 L 579.00 338.00 L 578.00 338.00 L 577.00 338.00 L 576.00 338.00 L 575.00 338.00 L 574.00 337.00 L 574.00 337.00 L 573.00 337.00 L 572.00 337.00 L 571.00 336.00 L 571.00 336.00 L 570.00 336.00 L 569.00 336.00 L 568.00 336.00 L 567.00 335.00 L 567.00 335.00 L 566.00 335.00 L 565.00 335.00 L 564.00 334.00 L 564.00 334.00 L 564.00 334.00 L 564.00 335.00 L 564.00 336.00 L 564.00 336.00 L 565.00 337.00 L 565.00 338.00 L 565.00 339.00 L 565.00 339.00 L 566.00 340.00 L 566.00 341.00 L 566.00 342.00 L 566.00 342.00 L 567.00 343.00 L 567.00 344.00 L 567.00 345.00 L 567.00 346.00 L 567.00 347.00 L 567.00 347.00 L 568.00 348.00 L 567.00 349.00 L 567.00 349.00 L 567.00 350.00 L 567.00 351.00 L 567.00 352.00 L 566.00 353.00 L 566.00 353.00 L 566.00 354.00 L 566.00 355.00 L 565.00 356.00 L 565.00 356.00 L 565.00 357.00 L 565.00 358.00 L 564.00 359.00 L 564.00 359.00 L 564.00 360.00 L 564.00 360.00 L 565.00 360.00 L 566.00 360.00 L 566.00 360.00 L 567.00 359.00 L 568.00 359.00 L 569.00 359.00 L 570.00 359.00 L 570.00 359.00 L 571.00 358.00 L 572.00 358.00 L 573.00 358.00 L 574.00 358.00 L 574.00 358.00 L 575.00 357.00 L 576.00 357.00 L 577.00 357.00 L 578.00 357.00 L 579.00 357.00 L 580.00 358.00 L 580.00 358.00 L 581.00 358.00 L 582.00 358.00 L 583.00 358.00 L 584.00 359.00 L 584.00 359.00 L 585.00 359.00 L 586.00 359.00 L 587.00 359.00 L 588.00 360.00 L 588.00 360.00 L 589.00 360.00 L 590.00 360.00 L 590.00 360.00 Z" fill="black" /></svg>