<svg id="visual" viewBox="0 0 1280 256" width="1280" height="256" xmlns="http://www.w3.org/2000/svg" xmlns:xlink="http://www.w3.org/1999/xlink" version="1.1"><path d="M0 75L71.2 75C142.3 75 284.7 75 426.8 81.8C569 88.7 711 102.3 853.2 109.2C995.3 116 1137.7 116 1208.8 116L1280 116L1280 0L1208.8 0C1137.7 0 995.3 0 853.2 0C711 0 569 0 426.8 0C284.7 0 142.3 0 71.2 0L0 0Z" fill="#e11d48"></path><path d="M0 134L71.2 135.3C142.3 136.7 284.7 139.3 426.8 147.5C569 155.7 711 169.3 853.2 175.3C995.3 181.3 1137.7 179.7 1208.8 178.8L1280 178L1280 114L1208.8 114C1137.7 114 995.3 114 853.2 107.2C711 100.3 569 86.7 426.8 79.8C284.7 73 142.3 73 71.2 73L0 73Z" fill="#ef4e67"></path><path d="M0 257L71.2 257C142.3 257 284.7 257 426.8 257C569 257 711 257 853.2 257C995.3 257 1137.7 257 1208.8 257L1280 257L1280 176L1208.8 176.8C1137.7 177.7 995.3 179.3 853.2 173.3C711 167.3 569 153.7 426.8 145.5C284.7 137.3 142.3 134.7 71.2 133.3L0 132Z" fill="#fb7185"></path></svg>