<?xml version="1.0" encoding="UTF-8"?>
<svg id="Capa_1" xmlns="http://www.w3.org/2000/svg" version="1.1" viewBox="0 0 294 294">
  <!-- Generator: Adobe Illustrator 29.6.1, SVG Export Plug-In . SVG Version: 2.1.1 Build 9)  -->
  <defs>
    <style>
      .st0 {
        fill: #eb1034;
      }
    </style>
  </defs>
  <path class="st0" d="M204.55,161.87c-4.73-4.77-10.44-8.47-16.71-10.85,7.18-13.14,8.59-28.5,9.22-36.53,1.29-14.08-3.48-28.05-13.14-38.39-9.64-10.35-23.23-16.09-37.38-15.79-14.97-.05-29.27,6.3-39.26,17.46-8.92,9.78-13.23,22.92-11.82,36.09.44,12.9,3.64,25.55,9.41,37.09-16.57,6.44-28.5,21.16-31.36,38.72-.5,2.59.17,5.25,1.83,7.29,1.68,2.02,4.15,3.21,6.79,3.21h14.14c3.9.05,7.35-2.52,8.43-6.27,1.32-6.38,5.86-11.62,12.01-13.8,9.55-3.18,19.46-5.08,29.51-5.64,9.77.5,19.42,2.29,28.72,5.3,8.47-8.03,18.56-14.14,29.6-17.9h0ZM146.55,143.05c-7.9,0-17.75,0-19.82-31.36v-.75c-.61-4.47.8-8.98,3.83-12.32,4.11-4.47,9.92-7.01,15.99-6.96,5.53-.03,10.83,2.24,14.64,6.27,3.37,3.59,5.06,8.42,4.67,13.33-2.41,31.64-11.41,31.64-19.31,31.64v.16Z"/>
  <path class="st0" d="M236.03,292.18l10.17-25.64c3.65-9.23,10.97-16.55,20.2-20.2l25.81-10.17c1.08-.43,1.79-1.48,1.79-2.65s-.71-2.22-1.79-2.65l-25.81-10.17c-9.23-3.65-16.55-10.97-20.2-20.2l-10.17-25.64c-.43-1.08-1.48-1.79-2.65-1.79s-2.22.71-2.65,1.79l-10.17,25.64c-3.65,9.24-10.95,16.55-20.2,20.2l-25.64,10.17c-1.08.43-1.79,1.48-1.79,2.65s.71,2.22,1.79,2.65l25.64,10.17c9.24,3.65,16.55,10.95,20.2,20.2l10.17,25.64c.43,1.1,1.48,1.82,2.65,1.82s2.22-.73,2.65-1.82Z"/>
  <path class="st0" d="M0,233.64c0,33.33,27.02,60.36,60.36,60.36h21.01c8.73.22,16.22-6.16,17.39-14.81.91-9.05-5.69-17.12-14.73-18.02-.57-.06-1.15-.09-1.73-.08h-21.95c-15.15,0-27.43-12.28-27.43-27.43h0v-21.01c.22-8.73-6.16-16.22-14.81-17.39h-1.65c-4.06.02-7.97,1.55-10.97,4.28-3.47,3.1-5.46,7.53-5.49,12.18v21.95Z"/>
  <path class="st0" d="M82.3,0h-21.95C27.02,0,0,27.02,0,60.36v21.95c-.05,9.09,7.29,16.5,16.38,16.54.58,0,1.15-.02,1.73-.08,8.65-1.17,15.03-8.67,14.81-17.39v-21.01c0-15.15,12.28-27.43,27.43-27.43h21.01c8.73.22,16.22-6.16,17.39-14.81.91-9.05-5.69-17.12-14.73-18.02-.57-.06-1.15-.09-1.73-.08Z"/>
  <g id="SvgjsG7232">
    <path class="st0" d="M294,60.36C294,27.03,266.98,0,233.64,0h-21.01c-8.73-.22-16.22,6.16-17.39,14.81-.91,9.05,5.69,17.12,14.73,18.02.57.06,1.15.09,1.73.08h21.95c15.15,0,27.43,12.28,27.43,27.43v21.01c-.22,8.73,6.16,16.22,14.81,17.39,9.05.91,17.12-5.69,18.02-14.73.06-.57.09-1.15.08-1.73v-21.95Z"/>
  </g>
</svg>